<?xml version="1.0" encoding="UTF-8" standalone="no" ?>
<!DOCTYPE svg PUBLIC "-//W3C//DTD SVG 1.1//EN" "http://www.w3.org/Graphics/SVG/1.1/DTD/svg11.dtd">
<svg xmlns="http://www.w3.org/2000/svg" xmlns:xlink="http://www.w3.org/1999/xlink" version="1.1" width="254" height="261" viewBox="0 0 254 261" xml:space="preserve">
<desc>Created with Fabric.js 4.6.0</desc>
<defs>
</defs>
<g transform="matrix(0.43 0 0 0.46 133.98 127.55)" id="XlPyRPxhpiIVyn0b0nmmZ"  >
<g style="" vector-effect="non-scaling-stroke"   >
		<g transform="matrix(0.13 0 0 -0.13 11.83 -168.39)" id="7bzx493KFjTUdyXK7xIy_"  >
<path style="stroke: none; stroke-width: 1; stroke-dasharray: none; stroke-linecap: butt; stroke-dashoffset: 0; stroke-linejoin: miter; stroke-miterlimit: 4; fill: rgb(0,0,0); fill-rule: nonzero; opacity: 1;" vector-effect="non-scaling-stroke"  transform=" translate(-1358.75, -2567.96)" d="M 1322 2579 C 1285 2565 1301 2545 1349 2547 C 1393 2549 1424 2565 1414 2581 C 1407 2593 1352 2591 1322 2579 z" stroke-linecap="round" />
</g>
		<g transform="matrix(0.13 0 0 -0.13 -8.38 -163.32)" id="UiqGArlybDUfdvfx7guwk"  >
<path style="stroke: none; stroke-width: 1; stroke-dasharray: none; stroke-linecap: butt; stroke-dashoffset: 0; stroke-linejoin: miter; stroke-miterlimit: 4; fill: rgb(0,0,0); fill-rule: nonzero; opacity: 1;" vector-effect="non-scaling-stroke"  transform=" translate(-1207.16, -2529.87)" d="M 1187 2538 C 1197 2486 1230 2471 1230 2518 C 1230 2548 1214 2570 1193 2570 C 1184 2570 1182 2560 1187 2538 z" stroke-linecap="round" />
</g>
		<g transform="matrix(0.13 0 0 -0.13 -28.41 -162.02)" id="oL-SfFN544mto6B-9Z29R"  >
<path style="stroke: none; stroke-width: 1; stroke-dasharray: none; stroke-linecap: butt; stroke-dashoffset: 0; stroke-linejoin: miter; stroke-miterlimit: 4; fill: rgb(0,0,0); fill-rule: nonzero; opacity: 1;" vector-effect="non-scaling-stroke"  transform=" translate(-1056.9, -2520.12)" d="M 1000 2540 C 1000 2525 1061 2490 1087 2490 C 1121 2490 1123 2507 1091 2529 C 1061 2551 1000 2558 1000 2540 z" stroke-linecap="round" />
</g>
		<g transform="matrix(0.13 0 0 -0.13 14.64 -157.04)" id="_XZd1Ywy0P-jKW66nR94N"  >
<path style="stroke: none; stroke-width: 1; stroke-dasharray: none; stroke-linecap: butt; stroke-dashoffset: 0; stroke-linejoin: miter; stroke-miterlimit: 4; fill: rgb(0,0,0); fill-rule: nonzero; opacity: 1;" vector-effect="non-scaling-stroke"  transform=" translate(-1379.77, -2482.8)" d="M 1395 2517 C 1355 2504 1330 2481 1330 2458 C 1330 2435 1337 2435 1377 2460 C 1405 2477 1437 2517 1428 2524 C 1426 2526 1412 2523 1395 2517 z" stroke-linecap="round" />
</g>
		<g transform="matrix(0.13 0 0 -0.13 54.07 -156.31)" id="bpoQv-XubjJnuljLC4Td_"  >
<path style="stroke: none; stroke-width: 1; stroke-dasharray: none; stroke-linecap: butt; stroke-dashoffset: 0; stroke-linejoin: miter; stroke-miterlimit: 4; fill: rgb(0,0,0); fill-rule: nonzero; opacity: 1;" vector-effect="non-scaling-stroke"  transform=" translate(-1675.5, -2477.33)" d="M 1630 2499 C 1630 2472 1665 2440 1696 2440 L 1721 2440 L 1695 2474 C 1664 2515 1630 2528 1630 2499 z" stroke-linecap="round" />
</g>
		<g transform="matrix(0.13 0 0 -0.13 -54.65 -155.97)" id="kgyqHQjPjz-Q_AQEdjyI0"  >
<path style="stroke: none; stroke-width: 1; stroke-dasharray: none; stroke-linecap: butt; stroke-dashoffset: 0; stroke-linejoin: miter; stroke-miterlimit: 4; fill: rgb(0,0,0); fill-rule: nonzero; opacity: 1;" vector-effect="non-scaling-stroke"  transform=" translate(-860.1, -2474.75)" d="M 847 2492 C 830 2473 824 2440 838 2440 C 856 2440 890 2473 890 2491 C 890 2515 868 2516 847 2492 z" stroke-linecap="round" />
</g>
		<g transform="matrix(0.13 0 0 -0.13 29.78 -153.22)" id="IiRlKAGLAbnWq8qvSIYdl"  >
<path style="stroke: none; stroke-width: 1; stroke-dasharray: none; stroke-linecap: butt; stroke-dashoffset: 0; stroke-linejoin: miter; stroke-miterlimit: 4; fill: rgb(0,0,0); fill-rule: nonzero; opacity: 1;" vector-effect="non-scaling-stroke"  transform=" translate(-1493.38, -2454.11)" d="M 1480 2470 C 1467 2439 1472 2410 1490 2410 C 1508 2410 1521 2459 1510 2481 C 1496 2506 1495 2505 1480 2470 z" stroke-linecap="round" />
</g>
		<g transform="matrix(0.13 0 0 -0.13 0.66 -150.32)" id="Viu-yUuTZaW8XAp3T238O"  >
<path style="stroke: none; stroke-width: 1; stroke-dasharray: none; stroke-linecap: butt; stroke-dashoffset: 0; stroke-linejoin: miter; stroke-miterlimit: 4; fill: rgb(0,0,0); fill-rule: nonzero; opacity: 1;" vector-effect="non-scaling-stroke"  transform=" translate(-1274.98, -2432.38)" d="M 1267 2483 C 1245 2444 1250 2380 1275 2380 C 1297 2380 1305 2444 1287 2470 C 1279 2482 1270 2488 1267 2483 z" stroke-linecap="round" />
</g>
		<g transform="matrix(0.13 0 0 -0.13 -42.62 -150.45)" id="N0l8YW4ORpWNg_fsFTXAz"  >
<path style="stroke: none; stroke-width: 1; stroke-dasharray: none; stroke-linecap: butt; stroke-dashoffset: 0; stroke-linejoin: miter; stroke-miterlimit: 4; fill: rgb(0,0,0); fill-rule: nonzero; opacity: 1;" vector-effect="non-scaling-stroke"  transform=" translate(-950.34, -2433.34)" d="M 932 2435 C 934 2397 939 2384 953 2382 C 978 2377 976 2431 950 2461 L 930 2485 L 932 2435 z" stroke-linecap="round" />
</g>
		<g transform="matrix(0.13 0 0 -0.13 -32.03 -150.2)" id="zpM8oyZeG2FcbgF2EZWMV"  >
<path style="stroke: none; stroke-width: 1; stroke-dasharray: none; stroke-linecap: butt; stroke-dashoffset: 0; stroke-linejoin: miter; stroke-miterlimit: 4; fill: rgb(0,0,0); fill-rule: nonzero; opacity: 1;" vector-effect="non-scaling-stroke"  transform=" translate(-1029.74, -2431.51)" d="M 1010 2441 C 1010 2404 1029 2373 1043 2387 C 1053 2397 1051 2439 1040 2461 C 1023 2492 1010 2483 1010 2441 z" stroke-linecap="round" />
</g>
		<g transform="matrix(0.13 0 0 -0.13 -14.93 -151.33)" id="em_ZZacIP-46f1To8F4US"  >
<path style="stroke: none; stroke-width: 1; stroke-dasharray: none; stroke-linecap: butt; stroke-dashoffset: 0; stroke-linejoin: miter; stroke-miterlimit: 4; fill: rgb(0,0,0); fill-rule: nonzero; opacity: 1;" vector-effect="non-scaling-stroke"  transform=" translate(-1158, -2439.94)" d="M 1135 2440 C 1165 2409 1210 2399 1210 2424 C 1210 2445 1170 2470 1136 2470 L 1106 2470 L 1135 2440 z" stroke-linecap="round" />
</g>
		<g transform="matrix(0.13 0 0 -0.13 14.78 -143.82)" id="m-Vwjhs7sMsdrK7RSN4Vu"  >
<path style="stroke: none; stroke-width: 1; stroke-dasharray: none; stroke-linecap: butt; stroke-dashoffset: 0; stroke-linejoin: miter; stroke-miterlimit: 4; fill: rgb(0,0,0); fill-rule: nonzero; opacity: 1;" vector-effect="non-scaling-stroke"  transform=" translate(-1380.86, -2383.68)" d="M 1383 2410 C 1359 2399 1339 2382 1335 2370 C 1326 2341 1334 2336 1366 2352 C 1393 2365 1438 2416 1429 2424 C 1427 2426 1406 2419 1383 2410 z" stroke-linecap="round" />
</g>
		<g transform="matrix(0.13 0 0 -0.13 40.09 -142.43)" id="S7nyizFDEGyvk_NYgxhBS"  >
<path style="stroke: none; stroke-width: 1; stroke-dasharray: none; stroke-linecap: butt; stroke-dashoffset: 0; stroke-linejoin: miter; stroke-miterlimit: 4; fill: rgb(0,0,0); fill-rule: nonzero; opacity: 1;" vector-effect="non-scaling-stroke"  transform=" translate(-1570.64, -2373.24)" d="M 1567 2391 C 1539 2357 1535 2330 1557 2323 C 1575 2317 1602 2365 1598 2396 L 1595 2424 L 1567 2391 z" stroke-linecap="round" />
</g>
		<g transform="matrix(0.13 0 0 -0.13 -50.55 -139.3)" id="UszVUUR17-ubpHafdC_iw"  >
<path style="stroke: none; stroke-width: 1; stroke-dasharray: none; stroke-linecap: butt; stroke-dashoffset: 0; stroke-linejoin: miter; stroke-miterlimit: 4; fill: rgb(0,0,0); fill-rule: nonzero; opacity: 1;" vector-effect="non-scaling-stroke"  transform=" translate(-890.88, -2349.77)" d="M 877 2400 C 862 2357 864 2319 882 2303 C 919 2269 927 2326 894 2390 C 885 2409 880 2411 877 2400 z" stroke-linecap="round" />
</g>
		<g transform="matrix(0.13 0 0 -0.13 -65.71 -142.65)" id="KPcahM1g_etYHGqFQTBVR"  >
<path style="stroke: none; stroke-width: 1; stroke-dasharray: none; stroke-linecap: butt; stroke-dashoffset: 0; stroke-linejoin: miter; stroke-miterlimit: 4; fill: rgb(0,0,0); fill-rule: nonzero; opacity: 1;" vector-effect="non-scaling-stroke"  transform=" translate(-777.2, -2374.87)" d="M 747 2393 C 736 2383 771 2350 792 2350 C 812 2350 816 2370 798 2388 C 785 2401 757 2404 747 2393 z" stroke-linecap="round" />
</g>
		<g transform="matrix(0.13 0 0 -0.13 -10.27 -138.02)" id="KnkcIa2Kqg1BMu-ASU_MM"  >
<path style="stroke: none; stroke-width: 1; stroke-dasharray: none; stroke-linecap: butt; stroke-dashoffset: 0; stroke-linejoin: miter; stroke-miterlimit: 4; fill: rgb(0,0,0); fill-rule: nonzero; opacity: 1;" vector-effect="non-scaling-stroke"  transform=" translate(-1193, -2340.15)" d="M 1175 2340 C 1208 2305 1240 2300 1240 2330 C 1240 2353 1212 2370 1174 2370 L 1146 2370 L 1175 2340 z" stroke-linecap="round" />
</g>
		<g transform="matrix(0.13 0 0 -0.13 64.68 -136.21)" id="8Lq33s6Gtir7fQSEANZ0B"  >
<path style="stroke: none; stroke-width: 1; stroke-dasharray: none; stroke-linecap: butt; stroke-dashoffset: 0; stroke-linejoin: miter; stroke-miterlimit: 4; fill: rgb(0,0,0); fill-rule: nonzero; opacity: 1;" vector-effect="non-scaling-stroke"  transform=" translate(-1755.08, -2326.54)" d="M 1747 2352 C 1729 2332 1724 2295 1739 2285 C 1752 2277 1780 2320 1780 2347 C 1780 2375 1769 2376 1747 2352 z" stroke-linecap="round" />
</g>
		<g transform="matrix(0.13 0 0 -0.13 27.45 -133.79)" id="sGYsZ2kFXxCniWd5N7jIj"  >
<path style="stroke: none; stroke-width: 1; stroke-dasharray: none; stroke-linecap: butt; stroke-dashoffset: 0; stroke-linejoin: miter; stroke-miterlimit: 4; fill: rgb(0,0,0); fill-rule: nonzero; opacity: 1;" vector-effect="non-scaling-stroke"  transform=" translate(-1475.85, -2308.41)" d="M 1473 2338 C 1448 2310 1438 2279 1448 2262 C 1460 2244 1496 2286 1505 2328 C 1513 2366 1502 2369 1473 2338 z" stroke-linecap="round" />
</g>
		<g transform="matrix(0.13 0 0 -0.13 -25.36 -131.09)" id="A6ytLIKgTD1yJbOxv42zL"  >
<path style="stroke: none; stroke-width: 1; stroke-dasharray: none; stroke-linecap: butt; stroke-dashoffset: 0; stroke-linejoin: miter; stroke-miterlimit: 4; fill: rgb(0,0,0); fill-rule: nonzero; opacity: 1;" vector-effect="non-scaling-stroke"  transform=" translate(-1079.78, -2288.17)" d="M 1071 2319 C 1058 2280 1057 2243 1069 2235 C 1092 2221 1110 2308 1091 2338 C 1085 2348 1080 2343 1071 2319 z" stroke-linecap="round" />
</g>
		<g transform="matrix(0.13 0 0 -0.13 13.94 -134.04)" id="7ElWw00-SVs78nDnmn2FL"  >
<path style="stroke: none; stroke-width: 1; stroke-dasharray: none; stroke-linecap: butt; stroke-dashoffset: 0; stroke-linejoin: miter; stroke-miterlimit: 4; fill: rgb(0,0,0); fill-rule: nonzero; opacity: 1;" vector-effect="non-scaling-stroke"  transform=" translate(-1374.58, -2310.31)" d="M 1370 2339 C 1342 2328 1330 2313 1330 2288 C 1330 2262 1345 2266 1385 2301 C 1436 2346 1429 2362 1370 2339 z" stroke-linecap="round" />
</g>
		<g transform="matrix(0.13 0 0 -0.13 -87.53 -133.57)" id="gRPAFPgA-HE5YSetuntap"  >
<path style="stroke: none; stroke-width: 1; stroke-dasharray: none; stroke-linecap: butt; stroke-dashoffset: 0; stroke-linejoin: miter; stroke-miterlimit: 4; fill: rgb(0,0,0); fill-rule: nonzero; opacity: 1;" vector-effect="non-scaling-stroke"  transform=" translate(-613.51, -2306.74)" d="M 608 2329 C 580 2318 564 2292 578 2278 C 591 2265 636 2289 649 2316 C 661 2343 654 2345 608 2329 z" stroke-linecap="round" />
</g>
		<g transform="matrix(0.13 0 0 -0.13 76.27 -130.19)" id="LHk3FW2DoB-LnNxpV5S4p"  >
<path style="stroke: none; stroke-width: 1; stroke-dasharray: none; stroke-linecap: butt; stroke-dashoffset: 0; stroke-linejoin: miter; stroke-miterlimit: 4; fill: rgb(0,0,0); fill-rule: nonzero; opacity: 1;" vector-effect="non-scaling-stroke"  transform=" translate(-1842, -2281.4)" d="M 1830 2305 C 1808 2269 1809 2212 1831 2226 C 1845 2235 1870 2294 1870 2320 C 1870 2350 1854 2344 1830 2305 z" stroke-linecap="round" />
</g>
		<g transform="matrix(0.13 0 0 -0.13 51.73 -131.29)" id="k8TMPoIdo8D4IbQBPD2h4"  >
<path style="stroke: none; stroke-width: 1; stroke-dasharray: none; stroke-linecap: butt; stroke-dashoffset: 0; stroke-linejoin: miter; stroke-miterlimit: 4; fill: rgb(0,0,0); fill-rule: nonzero; opacity: 1;" vector-effect="non-scaling-stroke"  transform=" translate(-1658.01, -2289.68)" d="M 1644 2308 C 1631 2279 1637 2250 1656 2250 C 1672 2250 1685 2292 1676 2315 C 1668 2337 1655 2333 1644 2308 z" stroke-linecap="round" />
</g>
		<g transform="matrix(0.13 0 0 -0.13 -76.41 -129.76)" id="OCJrf1f-1qONMc9QKWYa2"  >
<path style="stroke: none; stroke-width: 1; stroke-dasharray: none; stroke-linecap: butt; stroke-dashoffset: 0; stroke-linejoin: miter; stroke-miterlimit: 4; fill: rgb(0,0,0); fill-rule: nonzero; opacity: 1;" vector-effect="non-scaling-stroke"  transform=" translate(-696.96, -2278.19)" d="M 676 2294 C 668 2264 690 2232 709 2244 C 726 2255 722 2285 701 2304 C 683 2320 682 2320 676 2294 z" stroke-linecap="round" />
</g>
		<g transform="matrix(0.13 0 0 -0.13 -43.14 -125.37)" id="hVdjpC9cIkvi3KDNX87cZ"  >
<path style="stroke: none; stroke-width: 1; stroke-dasharray: none; stroke-linecap: butt; stroke-dashoffset: 0; stroke-linejoin: miter; stroke-miterlimit: 4; fill: rgb(0,0,0); fill-rule: nonzero; opacity: 1;" vector-effect="non-scaling-stroke"  transform=" translate(-946.47, -2245.29)" d="M 980 2295 C 962 2276 959 2264 964 2239 C 969 2212 968 2209 952 2215 C 894 2239 880 2243 874 2237 C 870 2233 879 2216 895 2200 C 927 2167 968 2160 976 2188 C 979 2197 990 2222 1000 2242 C 1021 2280 1026 2320 1012 2320 C 1007 2320 993 2309 980 2295 z" stroke-linecap="round" />
</g>
		<g transform="matrix(0.13 0 0 -0.13 -61.37 -130.64)" id="xqWd-b4jbhYtUrAlcJzrW"  >
<path style="stroke: none; stroke-width: 1; stroke-dasharray: none; stroke-linecap: butt; stroke-dashoffset: 0; stroke-linejoin: miter; stroke-miterlimit: 4; fill: rgb(0,0,0); fill-rule: nonzero; opacity: 1;" vector-effect="non-scaling-stroke"  transform=" translate(-809.71, -2284.83)" d="M 770 2302 C 770 2286 806 2260 828 2260 C 855 2260 857 2286 831 2300 C 807 2312 770 2313 770 2302 z" stroke-linecap="round" />
</g>
		<g transform="matrix(0.13 0 0 -0.13 43.92 -115.14)" id="uOgwcFzfRvlUC6UhKU7dc"  >
<path style="stroke: none; stroke-width: 1; stroke-dasharray: none; stroke-linecap: butt; stroke-dashoffset: 0; stroke-linejoin: miter; stroke-miterlimit: 4; fill: rgb(0,0,0); fill-rule: nonzero; opacity: 1;" vector-effect="non-scaling-stroke"  transform=" translate(-1599.44, -2168.54)" d="M 1577 2269 C 1562 2216 1572 2134 1591 2146 C 1596 2149 1600 2146 1600 2141 C 1600 2135 1596 2130 1590 2130 C 1585 2130 1573 2115 1564 2098 C 1547 2065 1547 2065 1567 2083 C 1587 2100 1588 2100 1594 2075 C 1598 2061 1604 2050 1609 2050 C 1622 2050 1643 2097 1637 2113 C 1634 2121 1637 2133 1643 2139 C 1651 2147 1648 2150 1632 2150 C 1612 2150 1610 2155 1610 2203 C 1610 2232 1604 2264 1597 2275 C 1584 2292 1583 2292 1577 2269 z" stroke-linecap="round" />
</g>
		<g transform="matrix(0.13 0 0 -0.13 3.31 -126.78)" id="y8nTgdTbIJ1JzUvp0cMXu"  >
<path style="stroke: none; stroke-width: 1; stroke-dasharray: none; stroke-linecap: butt; stroke-dashoffset: 0; stroke-linejoin: miter; stroke-miterlimit: 4; fill: rgb(0,0,0); fill-rule: nonzero; opacity: 1;" vector-effect="non-scaling-stroke"  transform=" translate(-1294.81, -2255.86)" d="M 1291 2254 C 1291 2243 1294 2240 1297 2248 C 1300 2255 1299 2264 1296 2267 C 1293 2271 1290 2265 1291 2254 z" stroke-linecap="round" />
</g>
		<g transform="matrix(0.13 0 0 -0.13 93.45 -123.95)" id="fIps7zUYDk-tOLrny8xzK"  >
<path style="stroke: none; stroke-width: 1; stroke-dasharray: none; stroke-linecap: butt; stroke-dashoffset: 0; stroke-linejoin: miter; stroke-miterlimit: 4; fill: rgb(0,0,0); fill-rule: nonzero; opacity: 1;" vector-effect="non-scaling-stroke"  transform=" translate(-1970.85, -2234.65)" d="M 1921 2246 C 1905 2226 1935 2210 1987 2210 L 2025 2211 L 1997 2235 C 1965 2263 1938 2267 1921 2246 z" stroke-linecap="round" />
</g>
		<g transform="matrix(0.13 0 0 -0.13 -94.03 -120.72)" id="g1Zfn1Li5DB4hNnTVxxVJ"  >
<path style="stroke: none; stroke-width: 1; stroke-dasharray: none; stroke-linecap: butt; stroke-dashoffset: 0; stroke-linejoin: miter; stroke-miterlimit: 4; fill: rgb(0,0,0); fill-rule: nonzero; opacity: 1;" vector-effect="non-scaling-stroke"  transform=" translate(-564.8, -2210.37)" d="M 530 2232 C 530 2218 570 2180 585 2180 C 603 2180 604 2194 590 2221 C 580 2239 530 2249 530 2232 z" stroke-linecap="round" />
</g>
		<g transform="matrix(0.13 0 0 -0.13 -62.42 -119.24)" id="f2KAl8MxxP3wEqe8wEn5q"  >
<path style="stroke: none; stroke-width: 1; stroke-dasharray: none; stroke-linecap: butt; stroke-dashoffset: 0; stroke-linejoin: miter; stroke-miterlimit: 4; fill: rgb(0,0,0); fill-rule: nonzero; opacity: 1;" vector-effect="non-scaling-stroke"  transform=" translate(-801.81, -2199.33)" d="M 750 2234 C 750 2229 759 2210 770 2193 C 785 2168 797 2160 819 2160 C 865 2160 865 2177 820 2205 C 769 2237 750 2245 750 2234 z" stroke-linecap="round" />
</g>
		<g transform="matrix(0.13 0 0 -0.13 19.67 6.13)" id="3e5A5t7aRggRkuR7y8VvJ"  >
<path style="stroke: none; stroke-width: 1; stroke-dasharray: none; stroke-linecap: butt; stroke-dashoffset: 0; stroke-linejoin: miter; stroke-miterlimit: 4; fill: rgb(0,0,0); fill-rule: nonzero; opacity: 1;" vector-effect="non-scaling-stroke"  transform=" translate(-1417.5, -1259)" d="M 1165 2219 C 1169 2206 1179 2187 1188 2178 C 1202 2161 1201 2160 1176 2160 C 1158 2160 1147 2167 1141 2183 C 1133 2203 1130 2201 1110 2157 C 1096 2126 1091 2102 1096 2087 C 1106 2057 1109 2010 1101 2010 C 1098 2010 1084 2019 1070 2030 C 1025 2065 1024 2051 1069 2010 C 1093 1988 1116 1970 1119 1970 C 1123 1970 1155 1946 1191 1917 C 1239 1876 1259 1852 1272 1817 C 1288 1773 1281 1751 1262 1785 C 1257 1795 1247 1798 1236 1794 C 1221 1788 1223 1785 1249 1769 C 1277 1752 1298 1715 1286 1702 C 1282 1699 1274 1702 1268 1708 C 1254 1722 1210 1724 1210 1712 C 1210 1707 1224 1691 1240 1675 C 1273 1643 1275 1633 1258 1595 C 1247 1571 1210 1559 1210 1580 C 1210 1596 1122 1707 1092 1729 L 1065 1749 L 1095 1750 C 1126 1750 1170 1774 1170 1791 C 1170 1803 1103 1803 1095 1790 C 1092 1785 1080 1776 1070 1770 C 1048 1758 1014 1785 987 1835 C 969 1868 964 1856 980 1816 C 991 1786 989 1785 950 1805 C 933 1814 908 1825 894 1830 L 867 1841 L 885 1813 C 912 1770 942 1750 981 1750 C 1001 1750 1023 1743 1030 1735 C 1055 1705 1001 1705 896 1737 C 884 1740 880 1738 885 1731 C 892 1719 883 1720 796 1742 C 749 1754 666 1795 649 1816 C 637 1831 620 1835 620 1823 C 621 1815 665 1786 753 1735 C 780 1720 838 1695 882 1679 C 943 1658 967 1644 986 1619 C 1015 1580 1014 1581 993 1586 C 976 1591 953 1576 887 1518 C 870 1502 848 1490 838 1490 C 828 1490 820 1486 820 1480 C 820 1462 864 1470 920 1498 C 968 1522 980 1525 1020 1517 C 1071 1507 1134 1461 1156 1418 C 1165 1402 1170 1386 1168 1384 C 1166 1382 1147 1386 1127 1392 C 1065 1411 1064 1389 1126 1345 L 1182 1305 L 1177 1215 C 1166 1025 1083 912 940 894 C 878 887 820 863 820 846 C 820 840 806 829 789 821 C 763 810 748 809 707 819 C 653 831 632 827 671 811 C 723 791 736 787 753 789 C 762 790 770 786 770 781 C 770 775 788 788 810 810 C 836 836 859 850 876 850 C 890 850 899 854 896 859 C 893 864 904 865 923 861 C 940 857 967 857 982 861 C 1019 871 1009 846 969 830 C 953 823 940 810 940 801 C 940 788 938 787 931 799 C 923 811 918 811 896 796 C 863 775 863 768 895 776 C 923 783 925 778 910 749 C 892 717 906 728 935 770 C 950 792 973 813 985 816 C 997 819 1025 839 1046 861 C 1069 884 1093 900 1107 900 C 1127 900 1130 896 1124 873 C 1106 800 1059 750 967 705 C 933 689 906 669 907 663 C 909 656 904 650 896 650 C 881 650 863 624 841 575 L 828 545 L 859 574 L 890 604 L 890 557 C 890 528 882 497 868 473 C 850 442 849 438 864 449 C 885 466 911 515 904 523 C 901 526 906 540 915 554 C 926 571 931 594 928 619 C 925 658 926 660 975 685 C 1003 699 1030 710 1035 710 C 1041 710 1054 720 1064 732 L 1083 754 L 1091 732 C 1101 704 1077 627 1049 599 C 1039 589 1030 572 1030 563 C 1031 546 1031 546 1041 563 C 1053 583 1070 577 1070 552 C 1070 542 1061 517 1050 495 C 1039 474 1032 455 1034 453 C 1042 445 1080 509 1080 530 C 1080 541 1084 549 1089 546 C 1094 542 1096 548 1093 559 C 1082 600 1111 588 1135 541 C 1165 480 1166 447 1139 396 C 1128 375 1121 356 1123 354 C 1125 352 1133 361 1140 375 C 1147 389 1162 400 1173 400 C 1191 400 1192 405 1187 444 C 1183 469 1171 504 1160 522 C 1149 540 1140 563 1140 574 C 1140 595 1203 508 1226 456 C 1237 429 1239 428 1240 448 C 1240 473 1219 511 1183 550 C 1149 588 1150 659 1185 735 C 1211 792 1214 794 1223 772 C 1232 752 1229 739 1207 700 C 1172 638 1172 614 1207 663 C 1239 709 1254 711 1246 667 C 1225 555 1225 554 1269 495 C 1292 465 1316 440 1323 440 C 1337 440 1358 385 1370 320 L 1377 275 L 1379 318 L 1380 362 L 1413 355 C 1430 351 1454 340 1464 331 C 1480 318 1482 318 1478 330 C 1474 344 1463 351 1399 380 C 1372 392 1334 447 1344 457 C 1347 461 1368 454 1389 442 C 1410 430 1435 420 1444 420 C 1453 420 1472 408 1485 394 C 1499 379 1510 372 1510 379 C 1510 398 1463 440 1440 440 C 1411 440 1406 442 1395 455 C 1390 461 1363 475 1337 484 C 1279 506 1258 535 1262 587 C 1265 621 1268 625 1290 622 C 1303 621 1325 609 1338 597 L 1363 575 L 1351 597 C 1345 609 1331 622 1320 625 C 1309 628 1300 634 1299 638 C 1299 642 1297 653 1295 663 C 1293 672 1296 678 1301 675 C 1316 665 1323 718 1311 751 C 1294 800 1297 804 1331 776 C 1348 762 1365 750 1370 750 C 1384 750 1400 695 1399 648 C 1397 601 1419 550 1441 550 C 1446 550 1441 563 1430 578 C 1411 603 1410 615 1416 668 C 1419 702 1426 730 1431 730 C 1436 730 1455 716 1475 699 C 1494 682 1510 673 1510 678 C 1510 697 1436 761 1408 767 C 1392 770 1380 779 1380 786 C 1380 794 1376 800 1372 800 C 1367 800 1356 817 1348 839 L 1333 877 L 1384 844 C 1412 825 1440 810 1448 810 C 1455 810 1474 803 1490 795 C 1507 786 1520 784 1520 789 C 1520 794 1513 800 1505 804 C 1479 814 1488 833 1516 826 C 1561 814 1614 774 1640 732 C 1654 709 1670 691 1675 692 C 1690 694 1741 679 1775 663 L 1805 649 L 1782 669 C 1769 681 1740 695 1719 702 C 1695 709 1667 728 1649 749 C 1600 808 1576 830 1561 830 C 1553 830 1538 838 1528 847 C 1514 860 1507 861 1498 852 C 1491 845 1482 840 1476 840 C 1471 840 1474 846 1485 853 C 1496 862 1523 866 1556 864 C 1585 862 1612 865 1615 869 C 1624 884 1587 891 1534 884 C 1503 881 1467 883 1446 890 C 1406 903 1346 967 1335 1008 C 1326 1046 1314 1280 1321 1280 C 1325 1280 1330 1293 1333 1309 C 1343 1358 1372 1414 1395 1432 C 1422 1452 1553 1463 1586 1448 C 1598 1442 1614 1423 1623 1405 C 1632 1386 1649 1366 1661 1360 C 1681 1349 1682 1350 1678 1379 C 1672 1419 1683 1419 1760 1380 C 1793 1363 1823 1351 1827 1352 C 1845 1355 1954 1297 1972 1274 C 1983 1261 2001 1245 2012 1239 C 2032 1228 2033 1230 2027 1260 C 2021 1288 2022 1291 2038 1285 C 2103 1260 2135 1258 2175 1275 L 2215 1293 L 2175 1302 C 2153 1307 2111 1309 2081 1306 C 2046 1303 2011 1307 1981 1317 C 1912 1340 1830 1382 1836 1391 C 1838 1396 1818 1402 1790 1406 C 1757 1410 1743 1416 1752 1421 C 1761 1427 1748 1436 1711 1453 L 1658 1476 L 1698 1488 C 1719 1495 1750 1500 1766 1501 L 1795 1502 L 1767 1510 C 1749 1516 1731 1514 1712 1505 C 1673 1485 1500 1479 1500 1498 C 1501 1518 1558 1545 1602 1546 C 1630 1546 1660 1554 1677 1566 L 1705 1585 L 1668 1588 C 1622 1592 1620 1603 1660 1637 C 1677 1650 1690 1668 1690 1677 C 1690 1693 1736 1735 1784 1763 C 1801 1773 1806 1778 1795 1774 C 1734 1754 1734 1753 1763 1803 C 1777 1829 1787 1850 1785 1850 C 1778 1850 1710 1740 1710 1730 C 1710 1724 1706 1720 1700 1720 C 1695 1720 1670 1700 1644 1675 C 1586 1618 1560 1603 1560 1625 C 1560 1643 1520 1637 1480 1612 L 1455 1597 L 1483 1587 C 1498 1582 1510 1575 1510 1572 C 1509 1560 1335 1482 1332 1492 C 1326 1506 1358 1548 1380 1555 C 1391 1558 1400 1569 1400 1578 C 1400 1587 1415 1605 1434 1618 C 1457 1634 1468 1649 1468 1666 L 1468 1691 L 1446 1671 C 1434 1659 1417 1650 1409 1650 C 1391 1650 1350 1609 1350 1592 C 1350 1585 1345 1580 1339 1580 C 1333 1580 1330 1574 1333 1566 C 1337 1557 1333 1554 1320 1557 C 1305 1561 1303 1567 1310 1583 C 1314 1595 1323 1625 1330 1650 C 1337 1675 1351 1711 1361 1731 C 1372 1751 1380 1785 1380 1806 L 1379 1845 L 1357 1818 C 1311 1762 1304 1794 1336 1917 C 1350 1973 1359 2029 1356 2048 C 1353 2068 1358 2096 1370 2123 C 1381 2146 1390 2178 1390 2194 C 1390 2222 1389 2223 1370 2205 C 1359 2195 1348 2179 1344 2168 C 1336 2142 1320 2157 1310 2202 C 1303 2232 1302 2233 1301 2208 C 1300 2193 1309 2158 1320 2130 C 1341 2078 1339 2060 1315 2060 C 1304 2060 1304 2056 1315 2032 C 1329 2004 1325 1960 1309 1960 C 1304 1960 1300 1964 1300 1970 C 1300 1981 1251 2015 1245 2008 C 1237 2000 1271 1927 1289 1914 C 1301 1904 1302 1898 1294 1890 C 1285 1881 1268 1889 1225 1924 C 1194 1950 1158 1977 1145 1986 C 1113 2007 1107 2042 1127 2087 C 1137 2108 1146 2127 1147 2129 C 1148 2131 1161 2125 1174 2116 C 1188 2107 1211 2100 1225 2100 C 1247 2100 1249 2103 1240 2119 C 1226 2146 1227 2150 1250 2150 C 1289 2150 1269 2176 1196 2220 L 1158 2243 L 1165 2219 z M 1307 1688 C 1304 1680 1301 1683 1301 1694 C 1300 1705 1303 1711 1306 1707 C 1309 1704 1310 1695 1307 1688 z M 978 1683 C 980 1675 973 1670 958 1671 C 938 1672 937 1673 955 1678 L 975 1683 L 955 1691 C 936 1699 936 1700 954 1697 C 965 1696 975 1689 978 1683 z M 1069 1654 C 1079 1645 1024 1651 1010 1660 C 999 1667 1005 1668 1030 1664 C 1049 1660 1067 1656 1069 1654 z M 1146 1565 C 1140 1544 1094 1564 1058 1602 L 1021 1642 L 1051 1638 C 1067 1635 1080 1638 1080 1644 C 1081 1650 1096 1637 1115 1615 C 1134 1593 1148 1571 1146 1565 z M 1278 1429 C 1275 1421 1271 1426 1267 1439 C 1263 1456 1264 1460 1272 1452 C 1277 1447 1280 1436 1278 1429 z M 1337 1393 C 1334 1383 1332 1389 1332 1405 C 1332 1422 1334 1429 1337 1423 C 1339 1416 1339 1402 1337 1393 z M 1284 1364 C 1278 1339 1276 1338 1270 1355 C 1266 1366 1268 1380 1274 1386 C 1289 1403 1292 1397 1284 1364 z M 1397 894 C 1394 891 1385 890 1378 893 C 1370 896 1373 899 1384 899 C 1395 900 1401 897 1397 894 z M 1437 864 C 1434 861 1425 860 1418 863 C 1410 866 1413 869 1424 869 C 1435 870 1441 867 1437 864 z M 1457 834 C 1454 831 1445 830 1438 833 C 1430 836 1433 839 1444 839 C 1455 840 1461 837 1457 834 z" stroke-linecap="round" />
</g>
		<g transform="matrix(0.13 0 0 -0.13 -80 -116.4)" id="yoDOo0cY7YugflFWCEM-y"  >
<path style="stroke: none; stroke-width: 1; stroke-dasharray: none; stroke-linecap: butt; stroke-dashoffset: 0; stroke-linejoin: miter; stroke-miterlimit: 4; fill: rgb(0,0,0); fill-rule: nonzero; opacity: 1;" vector-effect="non-scaling-stroke"  transform=" translate(-670, -2178.03)" d="M 655 2217 C 643 2188 654 2135 673 2132 C 686 2129 690 2135 690 2162 C 689 2202 664 2242 655 2217 z" stroke-linecap="round" />
</g>
		<g transform="matrix(0.13 0 0 -0.13 -106.99 -114.87)" id="i055jj3wtC3R7qMqI1uai"  >
<path style="stroke: none; stroke-width: 1; stroke-dasharray: none; stroke-linecap: butt; stroke-dashoffset: 0; stroke-linejoin: miter; stroke-miterlimit: 4; fill: rgb(0,0,0); fill-rule: nonzero; opacity: 1;" vector-effect="non-scaling-stroke"  transform=" translate(-467.55, -2166.5)" d="M 447 2184 C 441 2151 454 2120 475 2120 C 496 2120 494 2163 471 2191 L 453 2213 L 447 2184 z" stroke-linecap="round" />
</g>
		<g transform="matrix(0.13 0 0 -0.13 -41.39 -110.56)" id="afxLQkvSqusB_b_n9DFIh"  >
<path style="stroke: none; stroke-width: 1; stroke-dasharray: none; stroke-linecap: butt; stroke-dashoffset: 0; stroke-linejoin: miter; stroke-miterlimit: 4; fill: rgb(0,0,0); fill-rule: nonzero; opacity: 1;" vector-effect="non-scaling-stroke"  transform=" translate(-959.56, -2134.22)" d="M 1016 2170 C 1000 2137 996 2135 952 2138 C 922 2139 898 2135 886 2125 C 859 2104 868 2099 935 2099 C 982 2098 997 2094 1013 2076 C 1023 2065 1029 2060 1026 2066 C 1023 2072 1028 2092 1036 2110 C 1049 2134 1050 2149 1043 2173 L 1033 2205 L 1016 2170 z" stroke-linecap="round" />
</g>
		<g transform="matrix(0.13 0 0 -0.13 31.58 -83.67)" id="_1r_VbCUV6GDZSlVjEiYg"  >
<path style="stroke: none; stroke-width: 1; stroke-dasharray: none; stroke-linecap: butt; stroke-dashoffset: 0; stroke-linejoin: miter; stroke-miterlimit: 4; fill: rgb(0,0,0); fill-rule: nonzero; opacity: 1;" vector-effect="non-scaling-stroke"  transform=" translate(-1506.88, -1932.5)" d="M 1480 2175 C 1474 2159 1466 2128 1463 2107 C 1458 2076 1454 2071 1439 2075 C 1421 2081 1421 2079 1435 2040 C 1443 2017 1461 1984 1476 1968 C 1498 1941 1500 1931 1494 1896 C 1490 1873 1487 1848 1486 1840 C 1483 1816 1452 1751 1435 1734 C 1427 1725 1420 1711 1420 1701 C 1420 1692 1415 1679 1408 1672 C 1399 1663 1399 1660 1410 1660 C 1426 1661 1480 1704 1480 1717 C 1480 1721 1487 1734 1495 1744 C 1510 1764 1510 1764 1524 1744 C 1538 1726 1540 1726 1574 1760 C 1596 1782 1609 1806 1611 1825 C 1617 1908 1601 1925 1581 1858 L 1568 1816 L 1549 1841 C 1532 1862 1530 1878 1534 1955 L 1538 2045 L 1521 2006 C 1496 1948 1485 1977 1500 2064 C 1508 2112 1509 2146 1502 2170 L 1493 2205 L 1480 2175 z" stroke-linecap="round" />
</g>
		<g transform="matrix(0.13 0 0 -0.13 62.89 -115.31)" id="_Ohvp_3HiwQnRUmUT0WPy"  >
<path style="stroke: none; stroke-width: 1; stroke-dasharray: none; stroke-linecap: butt; stroke-dashoffset: 0; stroke-linejoin: miter; stroke-miterlimit: 4; fill: rgb(0,0,0); fill-rule: nonzero; opacity: 1;" vector-effect="non-scaling-stroke"  transform=" translate(-1741.66, -2169.81)" d="M 1685 2180 C 1673 2161 1692 2150 1738 2150 C 1802 2150 1822 2164 1779 2179 C 1739 2193 1693 2193 1685 2180 z" stroke-linecap="round" />
</g>
		<g transform="matrix(0.13 0 0 -0.13 88.27 -110.75)" id="oG_WuIrps0CEgCONrrQf8"  >
<path style="stroke: none; stroke-width: 1; stroke-dasharray: none; stroke-linecap: butt; stroke-dashoffset: 0; stroke-linejoin: miter; stroke-miterlimit: 4; fill: rgb(0,0,0); fill-rule: nonzero; opacity: 1;" vector-effect="non-scaling-stroke"  transform=" translate(-1932.05, -2135.59)" d="M 1935 2168 C 1908 2154 1890 2130 1890 2108 C 1890 2070 1940 2101 1969 2158 C 1982 2183 1970 2187 1935 2168 z" stroke-linecap="round" />
</g>
		<g transform="matrix(0.13 0 0 -0.13 -94.02 -109.96)" id="BLVf13P6uyHIZYWDiQB6Q"  >
<path style="stroke: none; stroke-width: 1; stroke-dasharray: none; stroke-linecap: butt; stroke-dashoffset: 0; stroke-linejoin: miter; stroke-miterlimit: 4; fill: rgb(0,0,0); fill-rule: nonzero; opacity: 1;" vector-effect="non-scaling-stroke"  transform=" translate(-564.82, -2129.67)" d="M 540 2142 C 540 2121 558 2100 577 2100 C 597 2100 592 2138 571 2150 C 544 2164 540 2163 540 2142 z" stroke-linecap="round" />
</g>
		<g transform="matrix(0.13 0 0 -0.13 75.37 -107.69)" id="DgQ3W5Pw7aQ3-AwvcokQh"  >
<path style="stroke: none; stroke-width: 1; stroke-dasharray: none; stroke-linecap: butt; stroke-dashoffset: 0; stroke-linejoin: miter; stroke-miterlimit: 4; fill: rgb(0,0,0); fill-rule: nonzero; opacity: 1;" vector-effect="non-scaling-stroke"  transform=" translate(-1835.28, -2112.66)" d="M 1828 2135 C 1808 2108 1805 2084 1820 2075 C 1837 2064 1860 2090 1860 2121 C 1860 2158 1849 2163 1828 2135 z" stroke-linecap="round" />
</g>
		<g transform="matrix(0.13 0 0 -0.13 106.47 -109.4)" id="GnNB0l85LOT4NjF6lb4Wi"  >
<path style="stroke: none; stroke-width: 1; stroke-dasharray: none; stroke-linecap: butt; stroke-dashoffset: 0; stroke-linejoin: miter; stroke-miterlimit: 4; fill: rgb(0,0,0); fill-rule: nonzero; opacity: 1;" vector-effect="non-scaling-stroke"  transform=" translate(-2068.51, -2125.51)" d="M 2032 2138 C 2005 2111 2018 2097 2065 2103 C 2121 2109 2131 2117 2106 2136 C 2082 2153 2048 2154 2032 2138 z" stroke-linecap="round" />
</g>
		<g transform="matrix(0.13 0 0 -0.13 -65 -106.16)" id="65qYt9krSV7q4scUEzG38"  >
<path style="stroke: none; stroke-width: 1; stroke-dasharray: none; stroke-linecap: butt; stroke-dashoffset: 0; stroke-linejoin: miter; stroke-miterlimit: 4; fill: rgb(0,0,0); fill-rule: nonzero; opacity: 1;" vector-effect="non-scaling-stroke"  transform=" translate(-782.5, -2101.18)" d="M 754 2113 C 766 2066 819 2041 812 2086 C 809 2106 775 2140 758 2140 C 752 2140 751 2129 754 2113 z" stroke-linecap="round" />
</g>
		<g transform="matrix(0.13 0 0 -0.13 -83.75 -103.33)" id="UY1dbq0GOfA3XmLhFrc2X"  >
<path style="stroke: none; stroke-width: 1; stroke-dasharray: none; stroke-linecap: butt; stroke-dashoffset: 0; stroke-linejoin: miter; stroke-miterlimit: 4; fill: rgb(0,0,0); fill-rule: nonzero; opacity: 1;" vector-effect="non-scaling-stroke"  transform=" translate(-641.9, -2079.96)" d="M 625 2108 C 615 2082 623 2045 641 2042 C 666 2037 671 2076 650 2103 C 634 2122 631 2123 625 2108 z" stroke-linecap="round" />
</g>
		<g transform="matrix(0.13 0 0 -0.13 56.59 -99.55)" id="MgqfedvxmZoT_tFoKlMUo"  >
<path style="stroke: none; stroke-width: 1; stroke-dasharray: none; stroke-linecap: butt; stroke-dashoffset: 0; stroke-linejoin: miter; stroke-miterlimit: 4; fill: rgb(0,0,0); fill-rule: nonzero; opacity: 1;" vector-effect="non-scaling-stroke"  transform=" translate(-1694.41, -2051.59)" d="M 1664 2092 C 1653 2085 1630 2047 1630 2036 C 1630 2031 1676 2016 1723 2006 C 1742 2001 1750 2004 1750 2014 C 1750 2022 1743 2030 1735 2034 C 1714 2042 1716 2055 1743 2067 C 1765 2078 1765 2078 1737 2089 C 1704 2102 1680 2103 1664 2092 z" stroke-linecap="round" />
</g>
		<g transform="matrix(0.13 0 0 -0.13 -108.99 -98.64)" id="MTXZms2v6ErzsvcLp83FC"  >
<path style="stroke: none; stroke-width: 1; stroke-dasharray: none; stroke-linecap: butt; stroke-dashoffset: 0; stroke-linejoin: miter; stroke-miterlimit: 4; fill: rgb(0,0,0); fill-rule: nonzero; opacity: 1;" vector-effect="non-scaling-stroke"  transform=" translate(-452.57, -2044.8)" d="M 427 2058 C 435 2028 449 2010 466 2010 C 487 2010 483 2058 461 2070 C 431 2086 421 2082 427 2058 z" stroke-linecap="round" />
</g>
		<g transform="matrix(0.13 0 0 -0.13 85.91 -92.22)" id="nrr_ow3quAE_ZsPd0B6Ws"  >
<path style="stroke: none; stroke-width: 1; stroke-dasharray: none; stroke-linecap: butt; stroke-dashoffset: 0; stroke-linejoin: miter; stroke-miterlimit: 4; fill: rgb(0,0,0); fill-rule: nonzero; opacity: 1;" vector-effect="non-scaling-stroke"  transform=" translate(-1914.35, -1996.67)" d="M 1917 2032 C 1902 2004 1890 1974 1890 1963 C 1890 1953 1884 1938 1878 1931 C 1867 1921 1869 1920 1885 1926 C 1929 1943 1972 2030 1953 2064 C 1945 2078 1939 2073 1917 2032 z" stroke-linecap="round" />
</g>
		<g transform="matrix(0.13 0 0 -0.13 -94.08 -93.6)" id="9XQPksBjSni56FZ5kZCF0"  >
<path style="stroke: none; stroke-width: 1; stroke-dasharray: none; stroke-linecap: butt; stroke-dashoffset: 0; stroke-linejoin: miter; stroke-miterlimit: 4; fill: rgb(0,0,0); fill-rule: nonzero; opacity: 1;" vector-effect="non-scaling-stroke"  transform=" translate(-564.37, -2006.98)" d="M 536 2038 C 551 1990 558 1974 573 1962 C 586 1951 589 1952 594 1968 C 603 1994 585 2036 561 2049 C 532 2065 528 2063 536 2038 z" stroke-linecap="round" />
</g>
		<g transform="matrix(0.13 0 0 -0.13 96.71 -94.6)" id="ZaUersc1n_muMzuPvFYfo"  >
<path style="stroke: none; stroke-width: 1; stroke-dasharray: none; stroke-linecap: butt; stroke-dashoffset: 0; stroke-linejoin: miter; stroke-miterlimit: 4; fill: rgb(0,0,0); fill-rule: nonzero; opacity: 1;" vector-effect="non-scaling-stroke"  transform=" translate(-1995.33, -2014.53)" d="M 1987 2032 C 1967 2010 1965 1980 1983 1980 C 2003 1980 2020 2002 2020 2027 C 2020 2055 2009 2056 1987 2032 z" stroke-linecap="round" />
</g>
		<g transform="matrix(0.13 0 0 -0.13 -73.39 -89.08)" id="h9QvOdM-03Ep9HHCuitVb"  >
<path style="stroke: none; stroke-width: 1; stroke-dasharray: none; stroke-linecap: butt; stroke-dashoffset: 0; stroke-linejoin: miter; stroke-miterlimit: 4; fill: rgb(0,0,0); fill-rule: nonzero; opacity: 1;" vector-effect="non-scaling-stroke"  transform=" translate(-719.56, -1973.09)" d="M 706 2025 C 690 1983 707 1910 732 1910 C 739 1910 741 1929 738 1965 C 733 2024 717 2054 706 2025 z" stroke-linecap="round" />
</g>
		<g transform="matrix(0.13 0 0 -0.13 -40.03 -86.37)" id="dxgR2Gc-WTZJLXsguV-PM"  >
<path style="stroke: none; stroke-width: 1; stroke-dasharray: none; stroke-linecap: butt; stroke-dashoffset: 0; stroke-linejoin: miter; stroke-miterlimit: 4; fill: rgb(0,0,0); fill-rule: nonzero; opacity: 1;" vector-effect="non-scaling-stroke"  transform=" translate(-969.76, -1952.75)" d="M 973 2024 C 976 2020 970 2000 959 1979 C 944 1948 942 1935 950 1920 C 956 1909 958 1895 955 1890 C 952 1885 953 1879 958 1876 C 970 1869 992 1936 994 1987 C 995 2018 991 2030 981 2030 C 973 2030 969 2027 973 2024 z" stroke-linecap="round" />
</g>
		<g transform="matrix(0.13 0 0 -0.13 -54.95 -91.16)" id="7KZJX-33-5iJJSy_1mACt"  >
<path style="stroke: none; stroke-width: 1; stroke-dasharray: none; stroke-linecap: butt; stroke-dashoffset: 0; stroke-linejoin: miter; stroke-miterlimit: 4; fill: rgb(0,0,0); fill-rule: nonzero; opacity: 1;" vector-effect="non-scaling-stroke"  transform=" translate(-857.85, -1988.73)" d="M 810 2011 C 810 1994 848 1960 868 1960 C 877 1960 891 1964 899 1969 C 910 1976 908 1981 889 1993 C 856 2015 810 2025 810 2011 z" stroke-linecap="round" />
</g>
		<g transform="matrix(0.13 0 0 -0.13 72.23 -84.43)" id="s0kiOUbybhr-nNy8Mo11Z"  >
<path style="stroke: none; stroke-width: 1; stroke-dasharray: none; stroke-linecap: butt; stroke-dashoffset: 0; stroke-linejoin: miter; stroke-miterlimit: 4; fill: rgb(0,0,0); fill-rule: nonzero; opacity: 1;" vector-effect="non-scaling-stroke"  transform=" translate(-1811.74, -1938.2)" d="M 1804 2009 C 1793 1990 1789 1860 1800 1860 C 1817 1860 1830 1898 1830 1947 C 1830 2002 1818 2031 1804 2009 z" stroke-linecap="round" />
</g>
		<g transform="matrix(0.13 0 0 -0.13 113.45 -91.6)" id="kQ_Ofx0HAEJvqmamQBy0h"  >
<path style="stroke: none; stroke-width: 1; stroke-dasharray: none; stroke-linecap: butt; stroke-dashoffset: 0; stroke-linejoin: miter; stroke-miterlimit: 4; fill: rgb(0,0,0); fill-rule: nonzero; opacity: 1;" vector-effect="non-scaling-stroke"  transform=" translate(-2120.91, -1991.97)" d="M 2125 2013 C 2083 2002 2067 1976 2098 1968 C 2127 1960 2160 1977 2160 2000 C 2160 2021 2159 2021 2125 2013 z" stroke-linecap="round" />
</g>
		<g transform="matrix(0.13 0 0 -0.13 -120.32 -87.88)" id="hvE6E4SboSwo9oKL-oABl"  >
<path style="stroke: none; stroke-width: 1; stroke-dasharray: none; stroke-linecap: butt; stroke-dashoffset: 0; stroke-linejoin: miter; stroke-miterlimit: 4; fill: rgb(0,0,0); fill-rule: nonzero; opacity: 1;" vector-effect="non-scaling-stroke"  transform=" translate(-367.6, -1964.09)" d="M 347 1982 C 330 1963 324 1929 338 1931 C 357 1933 405 1968 405 1981 C 405 2002 366 2003 347 1982 z" stroke-linecap="round" />
</g>
		<g transform="matrix(0.13 0 0 -0.13 -104.54 -86.61)" id="BQNf1r5InZdaScdDZ41PC"  >
<path style="stroke: none; stroke-width: 1; stroke-dasharray: none; stroke-linecap: butt; stroke-dashoffset: 0; stroke-linejoin: miter; stroke-miterlimit: 4; fill: rgb(0,0,0); fill-rule: nonzero; opacity: 1;" vector-effect="non-scaling-stroke"  transform=" translate(-485.94, -1954.55)" d="M 435 1966 C 417 1953 418 1951 455 1941 C 536 1919 575 1931 528 1964 C 500 1984 460 1984 435 1966 z" stroke-linecap="round" />
</g>
		<g transform="matrix(0.13 0 0 -0.13 -25.89 -89.36)" id="t2XZle-Yfcorqyrp1CulQ"  >
<path style="stroke: none; stroke-width: 1; stroke-dasharray: none; stroke-linecap: butt; stroke-dashoffset: 0; stroke-linejoin: miter; stroke-miterlimit: 4; fill: rgb(0,0,0); fill-rule: nonzero; opacity: 1;" vector-effect="non-scaling-stroke"  transform=" translate(-1075.86, -1975.19)" d="M 1068 1973 C 1075 1970 1084 1971 1087 1974 C 1091 1977 1085 1980 1074 1979 C 1063 1979 1060 1976 1068 1973 z" stroke-linecap="round" />
</g>
		<g transform="matrix(0.13 0 0 -0.13 -80.71 -77.95)" id="vc_ReOBwHPy8FbvT2-Jb3"  >
<path style="stroke: none; stroke-width: 1; stroke-dasharray: none; stroke-linecap: butt; stroke-dashoffset: 0; stroke-linejoin: miter; stroke-miterlimit: 4; fill: rgb(0,0,0); fill-rule: nonzero; opacity: 1;" vector-effect="non-scaling-stroke"  transform=" translate(-664.64, -1889.62)" d="M 648 1954 C 634 1941 640 1865 656 1842 C 690 1793 702 1856 672 1923 C 663 1944 652 1958 648 1954 z" stroke-linecap="round" />
</g>
		<g transform="matrix(0.13 0 0 -0.13 18.01 -79.08)" id="x_hR71d55aJWq7wT2hJNq"  >
<path style="stroke: none; stroke-width: 1; stroke-dasharray: none; stroke-linecap: butt; stroke-dashoffset: 0; stroke-linejoin: miter; stroke-miterlimit: 4; fill: rgb(0,0,0); fill-rule: nonzero; opacity: 1;" vector-effect="non-scaling-stroke"  transform=" translate(-1405.06, -1898.07)" d="M 1370 1952 C 1370 1916 1412 1840 1432 1840 C 1446 1840 1441 1894 1424 1918 C 1407 1942 1370 1966 1370 1952 z" stroke-linecap="round" />
</g>
		<g transform="matrix(0.13 0 0 -0.13 59.09 -84.42)" id="Sg92ir7-n-Vmp9wVFSzio"  >
<path style="stroke: none; stroke-width: 1; stroke-dasharray: none; stroke-linecap: butt; stroke-dashoffset: 0; stroke-linejoin: miter; stroke-miterlimit: 4; fill: rgb(0,0,0); fill-rule: nonzero; opacity: 1;" vector-effect="non-scaling-stroke"  transform=" translate(-1713.16, -1938.12)" d="M 1662 1949 C 1670 1924 1715 1909 1746 1920 C 1783 1935 1765 1951 1705 1958 C 1667 1962 1658 1960 1662 1949 z" stroke-linecap="round" />
</g>
		<g transform="matrix(0.13 0 0 -0.13 -62 -75.67)" id="X8uhGpHk9t9wjuKa7YHBd"  >
<path style="stroke: none; stroke-width: 1; stroke-dasharray: none; stroke-linecap: butt; stroke-dashoffset: 0; stroke-linejoin: miter; stroke-miterlimit: 4; fill: rgb(0,0,0); fill-rule: nonzero; opacity: 1;" vector-effect="non-scaling-stroke"  transform=" translate(-805, -1872.5)" d="M 780 1901 C 780 1873 787 1853 805 1833 L 829 1805 L 830 1843 C 830 1883 806 1940 790 1940 C 784 1940 780 1922 780 1901 z" stroke-linecap="round" />
</g>
		<g transform="matrix(0.13 0 0 -0.13 100.51 -80.88)" id="IEcnUyc-JR03FaYIBROhP"  >
<path style="stroke: none; stroke-width: 1; stroke-dasharray: none; stroke-linecap: butt; stroke-dashoffset: 0; stroke-linejoin: miter; stroke-miterlimit: 4; fill: rgb(0,0,0); fill-rule: nonzero; opacity: 1;" vector-effect="non-scaling-stroke"  transform=" translate(-2023.81, -1911.63)" d="M 1972 1928 C 1979 1908 2037 1878 2061 1882 C 2082 1885 2082 1885 2057 1913 C 2030 1941 1964 1953 1972 1928 z" stroke-linecap="round" />
</g>
		<g transform="matrix(0.13 0 0 -0.13 -23.1 -75.88)" id="smqsLtIqmrNHlvfVGTl-c"  >
<path style="stroke: none; stroke-width: 1; stroke-dasharray: none; stroke-linecap: butt; stroke-dashoffset: 0; stroke-linejoin: miter; stroke-miterlimit: 4; fill: rgb(0,0,0); fill-rule: nonzero; opacity: 1;" vector-effect="non-scaling-stroke"  transform=" translate(-1096.74, -1874.12)" d="M 1040 1904 C 1040 1884 1096 1840 1121 1840 C 1162 1840 1164 1856 1128 1878 C 1090 1901 1040 1916 1040 1904 z" stroke-linecap="round" />
</g>
		<g transform="matrix(0.13 0 0 -0.13 85.59 -77.5)" id="0vTyhD74Z51ipkE0Z0PfL"  >
<path style="stroke: none; stroke-width: 1; stroke-dasharray: none; stroke-linecap: butt; stroke-dashoffset: 0; stroke-linejoin: miter; stroke-miterlimit: 4; fill: rgb(0,0,0); fill-rule: nonzero; opacity: 1;" vector-effect="non-scaling-stroke"  transform=" translate(-1911.9, -1886.26)" d="M 1855 1897 C 1831 1879 1842 1874 1918 1865 C 1985 1858 1997 1867 1958 1894 C 1930 1914 1880 1915 1855 1897 z" stroke-linecap="round" />
</g>
		<g transform="matrix(0.13 0 0 -0.13 -116.2 -76.29)" id="beb2p1Cq8NY1_csvwtIv1"  >
<path style="stroke: none; stroke-width: 1; stroke-dasharray: none; stroke-linecap: butt; stroke-dashoffset: 0; stroke-linejoin: miter; stroke-miterlimit: 4; fill: rgb(0,0,0); fill-rule: nonzero; opacity: 1;" vector-effect="non-scaling-stroke"  transform=" translate(-398.5, -1877.14)" d="M 373 1893 C 352 1885 358 1870 387 1859 C 407 1852 417 1853 428 1864 C 454 1890 416 1911 373 1893 z" stroke-linecap="round" />
</g>
		<g transform="matrix(0.13 0 0 -0.13 53.92 -68.68)" id="ws75PCA1ghmkOVAl4FH50"  >
<path style="stroke: none; stroke-width: 1; stroke-dasharray: none; stroke-linecap: butt; stroke-dashoffset: 0; stroke-linejoin: miter; stroke-miterlimit: 4; fill: rgb(0,0,0); fill-rule: nonzero; opacity: 1;" vector-effect="non-scaling-stroke"  transform=" translate(-1674.36, -1820.1)" d="M 1700 1883 C 1683 1857 1665 1853 1656 1875 C 1653 1883 1646 1890 1640 1890 C 1625 1890 1628 1816 1645 1794 C 1653 1784 1660 1766 1660 1755 C 1661 1740 1663 1739 1667 1750 C 1671 1758 1684 1779 1697 1797 C 1715 1820 1720 1839 1718 1867 C 1715 1904 1715 1905 1700 1883 z" stroke-linecap="round" />
</g>
		<g transform="matrix(0.13 0 0 -0.13 117.64 -75.34)" id="TL9yq0GV_O8wdZ-H2gA8S"  >
<path style="stroke: none; stroke-width: 1; stroke-dasharray: none; stroke-linecap: butt; stroke-dashoffset: 0; stroke-linejoin: miter; stroke-miterlimit: 4; fill: rgb(0,0,0); fill-rule: nonzero; opacity: 1;" vector-effect="non-scaling-stroke"  transform=" translate(-2152.31, -1870.06)" d="M 2116 1884 C 2098 1867 2095 1840 2110 1840 C 2129 1840 2209 1884 2204 1892 C 2195 1906 2132 1901 2116 1884 z" stroke-linecap="round" />
</g>
		<g transform="matrix(0.13 0 0 -0.13 -128.7 -68.64)" id="3LvauBCPuAZM1ubfSNTkr"  >
<path style="stroke: none; stroke-width: 1; stroke-dasharray: none; stroke-linecap: butt; stroke-dashoffset: 0; stroke-linejoin: miter; stroke-miterlimit: 4; fill: rgb(0,0,0); fill-rule: nonzero; opacity: 1;" vector-effect="non-scaling-stroke"  transform=" translate(-304.72, -1819.8)" d="M 286 1864 C 267 1814 297 1733 321 1771 C 334 1792 332 1817 315 1850 C 297 1884 294 1886 286 1864 z" stroke-linecap="round" />
</g>
		<g transform="matrix(0.13 0 0 -0.13 -97.99 -71.9)" id="49lu5yd8QvYqUwQYc-I-P"  >
<path style="stroke: none; stroke-width: 1; stroke-dasharray: none; stroke-linecap: butt; stroke-dashoffset: 0; stroke-linejoin: miter; stroke-miterlimit: 4; fill: rgb(0,0,0); fill-rule: nonzero; opacity: 1;" vector-effect="non-scaling-stroke"  transform=" translate(-535.09, -1844.22)" d="M 503 1858 C 491 1852 479 1841 476 1834 C 472 1823 484 1820 530 1820 C 596 1820 611 1831 578 1854 C 552 1872 534 1873 503 1858 z" stroke-linecap="round" />
</g>
		<g transform="matrix(0.13 0 0 -0.13 120.56 -65.94)" id="cn7cn2bh6IBq8or7wsgG8"  >
<path style="stroke: none; stroke-width: 1; stroke-dasharray: none; stroke-linecap: butt; stroke-dashoffset: 0; stroke-linejoin: miter; stroke-miterlimit: 4; fill: rgb(0,0,0); fill-rule: nonzero; opacity: 1;" vector-effect="non-scaling-stroke"  transform=" translate(-2174.21, -1799.58)" d="M 2173 1828 C 2134 1784 2133 1740 2171 1761 C 2195 1774 2213 1816 2202 1836 C 2195 1848 2190 1846 2173 1828 z" stroke-linecap="round" />
</g>
		<g transform="matrix(0.13 0 0 -0.13 105.32 -63.98)" id="_m423jzwE8YRI39R0KW1X"  >
<path style="stroke: none; stroke-width: 1; stroke-dasharray: none; stroke-linecap: butt; stroke-dashoffset: 0; stroke-linejoin: miter; stroke-miterlimit: 4; fill: rgb(0,0,0); fill-rule: nonzero; opacity: 1;" vector-effect="non-scaling-stroke"  transform=" translate(-2059.88, -1784.82)" d="M 2030 1805 C 2030 1788 2065 1750 2080 1750 C 2093 1750 2093 1776 2080 1801 C 2067 1823 2030 1827 2030 1805 z" stroke-linecap="round" />
</g>
		<g transform="matrix(0.13 0 0 -0.13 88.22 -63.55)" id="EMiQr4gNLBn7cFa3EhKWg"  >
<path style="stroke: none; stroke-width: 1; stroke-dasharray: none; stroke-linecap: butt; stroke-dashoffset: 0; stroke-linejoin: miter; stroke-miterlimit: 4; fill: rgb(0,0,0); fill-rule: nonzero; opacity: 1;" vector-effect="non-scaling-stroke"  transform=" translate(-1931.68, -1781.65)" d="M 1883 1803 C 1862 1795 1868 1783 1898 1772 C 1943 1755 1974 1750 1988 1759 C 1998 1765 1993 1773 1967 1789 C 1934 1809 1908 1814 1883 1803 z" stroke-linecap="round" />
</g>
		<g transform="matrix(0.13 0 0 -0.13 -116.11 -53.94)" id="idgTuMob9Zjl32EZYXpZZ"  >
<path style="stroke: none; stroke-width: 1; stroke-dasharray: none; stroke-linecap: butt; stroke-dashoffset: 0; stroke-linejoin: miter; stroke-miterlimit: 4; fill: rgb(0,0,0); fill-rule: nonzero; opacity: 1;" vector-effect="non-scaling-stroke"  transform=" translate(-399.14, -1709.57)" d="M 379 1743 C 376 1685 389 1650 411 1650 C 424 1650 422 1715 408 1745 C 393 1778 380 1777 379 1743 z" stroke-linecap="round" />
</g>
		<g transform="matrix(0.13 0 0 -0.13 -99.52 -58.63)" id="NVvcZDJ5m8oNItU8SsdmY"  >
<path style="stroke: none; stroke-width: 1; stroke-dasharray: none; stroke-linecap: butt; stroke-dashoffset: 0; stroke-linejoin: miter; stroke-miterlimit: 4; fill: rgb(0,0,0); fill-rule: nonzero; opacity: 1;" vector-effect="non-scaling-stroke"  transform=" translate(-523.61, -1744.71)" d="M 482 1761 C 464 1750 510 1720 545 1720 C 575 1720 577 1731 552 1753 C 532 1771 503 1775 482 1761 z" stroke-linecap="round" />
</g>
		<g transform="matrix(0.13 0 0 -0.13 -131.81 -53.35)" id="lgcI7YGB25-uo4lz4Vfah"  >
<path style="stroke: none; stroke-width: 1; stroke-dasharray: none; stroke-linecap: butt; stroke-dashoffset: 0; stroke-linejoin: miter; stroke-miterlimit: 4; fill: rgb(0,0,0); fill-rule: nonzero; opacity: 1;" vector-effect="non-scaling-stroke"  transform=" translate(-281.4, -1705.16)" d="M 244 1716 C 226 1702 226 1701 253 1691 C 316 1667 363 1692 305 1718 C 272 1733 268 1733 244 1716 z" stroke-linecap="round" />
</g>
		<g transform="matrix(0.13 0 0 -0.13 -60.19 -46.71)" id="YIBMoyqOdZAhS75NlVONF"  >
<path style="stroke: none; stroke-width: 1; stroke-dasharray: none; stroke-linecap: butt; stroke-dashoffset: 0; stroke-linejoin: miter; stroke-miterlimit: 4; fill: rgb(0,0,0); fill-rule: nonzero; opacity: 1;" vector-effect="non-scaling-stroke"  transform=" translate(-818.57, -1655.29)" d="M 674 1698 C 677 1685 680 1672 680 1668 C 680 1664 701 1650 728 1637 C 762 1620 787 1615 817 1618 C 842 1620 877 1615 904 1605 C 928 1596 954 1590 962 1592 C 985 1600 863 1630 806 1630 C 752 1630 750 1631 736 1664 C 716 1712 662 1741 674 1698 z" stroke-linecap="round" />
</g>
		<g transform="matrix(0.13 0 0 -0.13 36.72 -50.97)" id="l7pl5qR5EpwZMfV1mrPoV"  >
<path style="stroke: none; stroke-width: 1; stroke-dasharray: none; stroke-linecap: butt; stroke-dashoffset: 0; stroke-linejoin: miter; stroke-miterlimit: 4; fill: rgb(0,0,0); fill-rule: nonzero; opacity: 1;" vector-effect="non-scaling-stroke"  transform=" translate(-1545.41, -1687.27)" d="M 1541 1711 C 1509 1702 1490 1673 1509 1661 C 1528 1649 1558 1659 1575 1683 C 1601 1720 1593 1726 1541 1711 z" stroke-linecap="round" />
</g>
		<g transform="matrix(0.13 0 0 -0.13 76.67 -43.32)" id="nQYE56y8IPF6QMZSjK1ul"  >
<path style="stroke: none; stroke-width: 1; stroke-dasharray: none; stroke-linecap: butt; stroke-dashoffset: 0; stroke-linejoin: miter; stroke-miterlimit: 4; fill: rgb(0,0,0); fill-rule: nonzero; opacity: 1;" vector-effect="non-scaling-stroke"  transform=" translate(-1845.04, -1629.88)" d="M 1790 1695 C 1779 1682 1782 1679 1809 1674 C 1846 1666 1848 1655 1816 1621 C 1785 1587 1773 1550 1793 1550 C 1817 1550 1860 1608 1860 1641 C 1860 1664 1865 1671 1887 1676 C 1912 1683 1912 1684 1895 1696 C 1870 1715 1806 1714 1790 1695 z" stroke-linecap="round" />
</g>
		<g transform="matrix(0.13 0 0 -0.13 114.18 -49.12)" id="4z0gXkkK7fxX5DowbX2_S"  >
<path style="stroke: none; stroke-width: 1; stroke-dasharray: none; stroke-linecap: butt; stroke-dashoffset: 0; stroke-linejoin: miter; stroke-miterlimit: 4; fill: rgb(0,0,0); fill-rule: nonzero; opacity: 1;" vector-effect="non-scaling-stroke"  transform=" translate(-2126.33, -1673.38)" d="M 2072 1694 C 2062 1689 2063 1684 2076 1669 C 2099 1644 2152 1644 2175 1670 C 2193 1689 2192 1690 2168 1690 C 2154 1690 2130 1692 2114 1695 C 2098 1697 2079 1697 2072 1694 z" stroke-linecap="round" />
</g>
		<g transform="matrix(0.13 0 0 -0.13 91.36 -43.91)" id="6wrAL4AtKzP9jALTQwEDT"  >
<path style="stroke: none; stroke-width: 1; stroke-dasharray: none; stroke-linecap: butt; stroke-dashoffset: 0; stroke-linejoin: miter; stroke-miterlimit: 4; fill: rgb(0,0,0); fill-rule: nonzero; opacity: 1;" vector-effect="non-scaling-stroke"  transform=" translate(-1955.19, -1634.3)" d="M 1946 1646 C 1895 1599 1900 1573 1953 1602 C 1981 1617 1999 1640 2000 1663 C 2000 1688 1986 1684 1946 1646 z" stroke-linecap="round" />
</g>
		<g transform="matrix(0.13 0 0 -0.13 -121.78 -43.4)" id="kenmUJwKyfuT8V7-LPmLp"  >
<path style="stroke: none; stroke-width: 1; stroke-dasharray: none; stroke-linecap: butt; stroke-dashoffset: 0; stroke-linejoin: miter; stroke-miterlimit: 4; fill: rgb(0,0,0); fill-rule: nonzero; opacity: 1;" vector-effect="non-scaling-stroke"  transform=" translate(-356.67, -1630.51)" d="M 303 1653 C 276 1648 250 1620 271 1619 C 279 1619 322 1615 368 1612 C 413 1608 450 1605 450 1606 C 450 1607 435 1617 416 1628 C 379 1650 336 1660 303 1653 z" stroke-linecap="round" />
</g>
		<g transform="matrix(0.13 0 0 -0.13 -100.66 -32.46)" id="Z_rTBpQWZAd8ZefVhiEFI"  >
<path style="stroke: none; stroke-width: 1; stroke-dasharray: none; stroke-linecap: butt; stroke-dashoffset: 0; stroke-linejoin: miter; stroke-miterlimit: 4; fill: rgb(0,0,0); fill-rule: nonzero; opacity: 1;" vector-effect="non-scaling-stroke"  transform=" translate(-515.02, -1548.43)" d="M 540 1610 C 540 1555 531 1549 492 1576 C 470 1591 467 1590 434 1556 C 394 1514 391 1501 425 1508 C 448 1512 450 1510 442 1489 C 437 1476 436 1457 439 1446 C 445 1430 451 1433 478 1471 C 513 1517 517 1530 498 1530 C 489 1530 489 1533 497 1541 C 509 1553 545 1545 537 1533 C 534 1528 557 1524 589 1523 C 620 1523 636 1524 625 1527 C 591 1536 580 1551 580 1587 C 580 1624 565 1660 550 1660 C 544 1660 540 1638 540 1610 z" stroke-linecap="round" />
</g>
		<g transform="matrix(0.13 0 0 -0.13 -79.92 -39.98)" id="fV3NqjjwwqyYxEbNPMayA"  >
<path style="stroke: none; stroke-width: 1; stroke-dasharray: none; stroke-linecap: butt; stroke-dashoffset: 0; stroke-linejoin: miter; stroke-miterlimit: 4; fill: rgb(0,0,0); fill-rule: nonzero; opacity: 1;" vector-effect="non-scaling-stroke"  transform=" translate(-670.61, -1604.84)" d="M 627 1612 C 612 1602 603 1590 607 1587 C 619 1574 675 1581 709 1599 C 742 1617 742 1617 719 1623 C 680 1634 657 1631 627 1612 z" stroke-linecap="round" />
</g>
		<g transform="matrix(0.13 0 0 -0.13 103.86 -34.92)" id="KcZHU0YxCtUtDp4WM0w4c"  >
<path style="stroke: none; stroke-width: 1; stroke-dasharray: none; stroke-linecap: butt; stroke-dashoffset: 0; stroke-linejoin: miter; stroke-miterlimit: 4; fill: rgb(0,0,0); fill-rule: nonzero; opacity: 1;" vector-effect="non-scaling-stroke"  transform=" translate(-2048.98, -1566.88)" d="M 2037 1584 C 2016 1556 2018 1525 2040 1525 C 2059 1525 2082 1573 2074 1594 C 2066 1616 2058 1614 2037 1584 z" stroke-linecap="round" />
</g>
		<g transform="matrix(0.13 0 0 -0.13 121.5 -36.15)" id="DKVCntPRaSER5VxquViLu"  >
<path style="stroke: none; stroke-width: 1; stroke-dasharray: none; stroke-linecap: butt; stroke-dashoffset: 0; stroke-linejoin: miter; stroke-miterlimit: 4; fill: rgb(0,0,0); fill-rule: nonzero; opacity: 1;" vector-effect="non-scaling-stroke"  transform=" translate(-2181.27, -1576.16)" d="M 2140 1585 C 2122 1563 2138 1547 2173 1554 C 2205 1560 2230 1577 2230 1591 C 2230 1606 2153 1601 2140 1585 z" stroke-linecap="round" />
</g>
		<g transform="matrix(0.13 0 0 -0.13 -127.72 -32.5)" id="EUaiFPSUG0WqfEi32mYGF"  >
<path style="stroke: none; stroke-width: 1; stroke-dasharray: none; stroke-linecap: butt; stroke-dashoffset: 0; stroke-linejoin: miter; stroke-miterlimit: 4; fill: rgb(0,0,0); fill-rule: nonzero; opacity: 1;" vector-effect="non-scaling-stroke"  transform=" translate(-312.13, -1548.76)" d="M 286 1559 C 246 1527 251 1509 298 1522 C 339 1533 372 1558 364 1571 C 355 1587 313 1580 286 1559 z" stroke-linecap="round" />
</g>
		<g transform="matrix(0.13 0 0 -0.13 -61.8 -28.61)" id="lQ49KovigceS7rAjkVZ1Z"  >
<path style="stroke: none; stroke-width: 1; stroke-dasharray: none; stroke-linecap: butt; stroke-dashoffset: 0; stroke-linejoin: miter; stroke-miterlimit: 4; fill: rgb(0,0,0); fill-rule: nonzero; opacity: 1;" vector-effect="non-scaling-stroke"  transform=" translate(-806.52, -1519.58)" d="M 755 1540 C 710 1530 688 1521 704 1521 C 727 1520 731 1517 722 1508 C 704 1490 707 1480 730 1480 C 758 1480 806 1506 813 1525 C 817 1535 833 1540 857 1540 C 878 1540 902 1545 910 1550 C 935 1566 845 1560 755 1540 z" stroke-linecap="round" />
</g>
		<g transform="matrix(0.13 0 0 -0.13 80.25 -27.29)" id="cG0CzEDMCFaLpX_0kHuH1"  >
<path style="stroke: none; stroke-width: 1; stroke-dasharray: none; stroke-linecap: butt; stroke-dashoffset: 0; stroke-linejoin: miter; stroke-miterlimit: 4; fill: rgb(0,0,0); fill-rule: nonzero; opacity: 1;" vector-effect="non-scaling-stroke"  transform=" translate(-1871.89, -1509.69)" d="M 1811 1521 C 1800 1514 1801 1510 1818 1501 C 1844 1487 1940 1486 1940 1500 C 1940 1524 1841 1540 1811 1521 z" stroke-linecap="round" />
</g>
		<g transform="matrix(0.13 0 0 -0.13 130.32 -20.25)" id="njJen9szO_ziUt2GIpP3_"  >
<path style="stroke: none; stroke-width: 1; stroke-dasharray: none; stroke-linecap: butt; stroke-dashoffset: 0; stroke-linejoin: miter; stroke-miterlimit: 4; fill: rgb(0,0,0); fill-rule: nonzero; opacity: 1;" vector-effect="non-scaling-stroke"  transform=" translate(-2247.37, -1456.91)" d="M 2217 1494 C 2207 1484 2232 1441 2257 1425 C 2279 1410 2280 1411 2280 1435 C 2280 1471 2236 1513 2217 1494 z" stroke-linecap="round" />
</g>
		<g transform="matrix(0.13 0 0 -0.13 -97.34 -17.3)" id="bHsVdgzFeET1IFSiZRYLf"  >
<path style="stroke: none; stroke-width: 1; stroke-dasharray: none; stroke-linecap: butt; stroke-dashoffset: 0; stroke-linejoin: miter; stroke-miterlimit: 4; fill: rgb(0,0,0); fill-rule: nonzero; opacity: 1;" vector-effect="non-scaling-stroke"  transform=" translate(-539.94, -1434.76)" d="M 526 1468 C 509 1445 504 1380 518 1380 C 529 1380 570 1454 570 1474 C 570 1497 544 1494 526 1468 z" stroke-linecap="round" />
</g>
		<g transform="matrix(0.13 0 0 -0.13 -67.95 -22.02)" id="vDcKVydibnn3NpCZb4LGJ"  >
<path style="stroke: none; stroke-width: 1; stroke-dasharray: none; stroke-linecap: butt; stroke-dashoffset: 0; stroke-linejoin: miter; stroke-miterlimit: 4; fill: rgb(0,0,0); fill-rule: nonzero; opacity: 1;" vector-effect="non-scaling-stroke"  transform=" translate(-760.35, -1470.12)" d="M 740 1470 C 716 1462 716 1462 745 1461 C 762 1461 782 1465 790 1470 C 802 1478 801 1480 785 1479 C 774 1478 754 1474 740 1470 z" stroke-linecap="round" />
</g>
		<g transform="matrix(0.13 0 0 -0.13 115.38 -17.24)" id="zy82NzZKjxk_AvpL1IH8q"  >
<path style="stroke: none; stroke-width: 1; stroke-dasharray: none; stroke-linecap: butt; stroke-dashoffset: 0; stroke-linejoin: miter; stroke-miterlimit: 4; fill: rgb(0,0,0); fill-rule: nonzero; opacity: 1;" vector-effect="non-scaling-stroke"  transform=" translate(-2135.34, -1434.32)" d="M 2127 1449 C 2095 1413 2092 1390 2119 1390 C 2143 1390 2170 1426 2170 1457 C 2170 1488 2160 1486 2127 1449 z" stroke-linecap="round" />
</g>
		<g transform="matrix(0.13 0 0 -0.13 76.62 -18.95)" id="Z4c4-LTYsxQkq1WTtUw3D"  >
<path style="stroke: none; stroke-width: 1; stroke-dasharray: none; stroke-linecap: butt; stroke-dashoffset: 0; stroke-linejoin: miter; stroke-miterlimit: 4; fill: rgb(0,0,0); fill-rule: nonzero; opacity: 1;" vector-effect="non-scaling-stroke"  transform=" translate(-1844.67, -1447.11)" d="M 1808 1459 C 1783 1445 1786 1433 1815 1426 C 1843 1419 1891 1437 1898 1458 C 1903 1473 1833 1474 1808 1459 z" stroke-linecap="round" />
</g>
		<g transform="matrix(0.13 0 0 -0.13 99.64 -17.01)" id="cGHD4CflsATs4B7g7YN1R"  >
<path style="stroke: none; stroke-width: 1; stroke-dasharray: none; stroke-linecap: butt; stroke-dashoffset: 0; stroke-linejoin: miter; stroke-miterlimit: 4; fill: rgb(0,0,0); fill-rule: nonzero; opacity: 1;" vector-effect="non-scaling-stroke"  transform=" translate(-2017.28, -1432.61)" d="M 2050 1460 C 2042 1455 2026 1450 2014 1450 C 1988 1450 1954 1415 1970 1405 C 1990 1393 2049 1410 2061 1431 C 2075 1457 2069 1472 2050 1460 z" stroke-linecap="round" />
</g>
		<g transform="matrix(0.13 0 0 -0.13 -128.64 -17.59)" id="yPywzURusiU6h22d8CJNl"  >
<path style="stroke: none; stroke-width: 1; stroke-dasharray: none; stroke-linecap: butt; stroke-dashoffset: 0; stroke-linejoin: miter; stroke-miterlimit: 4; fill: rgb(0,0,0); fill-rule: nonzero; opacity: 1;" vector-effect="non-scaling-stroke"  transform=" translate(-305.18, -1436.94)" d="M 264 1446 C 243 1430 241 1432 296 1415 C 314 1409 360 1435 360 1450 C 360 1465 286 1462 264 1446 z" stroke-linecap="round" />
</g>
		<g transform="matrix(0.13 0 0 -0.13 -82.27 -11.52)" id="VC1LsXxi1qM2ugbeQ7PKI"  >
<path style="stroke: none; stroke-width: 1; stroke-dasharray: none; stroke-linecap: butt; stroke-dashoffset: 0; stroke-linejoin: miter; stroke-miterlimit: 4; fill: rgb(0,0,0); fill-rule: nonzero; opacity: 1;" vector-effect="non-scaling-stroke"  transform=" translate(-653, -1391.4)" d="M 665 1446 C 624 1431 601 1401 600 1363 C 600 1326 616 1311 625 1340 C 628 1351 636 1360 641 1360 C 646 1360 650 1370 650 1383 C 650 1410 658 1421 690 1443 C 718 1462 709 1463 665 1446 z" stroke-linecap="round" />
</g>
		<g transform="matrix(0.13 0 0 -0.13 -72.27 -10.59)" id="gnPeiNK8ULJSNjhRl-54-"  >
<path style="stroke: none; stroke-width: 1; stroke-dasharray: none; stroke-linecap: butt; stroke-dashoffset: 0; stroke-linejoin: miter; stroke-miterlimit: 4; fill: rgb(0,0,0); fill-rule: nonzero; opacity: 1;" vector-effect="non-scaling-stroke"  transform=" translate(-728.01, -1384.44)" d="M 715 1410 C 698 1378 695 1330 709 1330 C 726 1330 762 1399 755 1420 C 746 1448 733 1445 715 1410 z" stroke-linecap="round" />
</g>
		<g transform="matrix(0.13 0 0 -0.13 84.02 -11.97)" id="p9VXMmgxUJC3a16T4VA4U"  >
<path style="stroke: none; stroke-width: 1; stroke-dasharray: none; stroke-linecap: butt; stroke-dashoffset: 0; stroke-linejoin: miter; stroke-miterlimit: 4; fill: rgb(0,0,0); fill-rule: nonzero; opacity: 1;" vector-effect="non-scaling-stroke"  transform=" translate(-1900.18, -1394.75)" d="M 1888 1393 C 1894 1391 1906 1391 1913 1393 C 1919 1396 1914 1398 1900 1398 C 1886 1398 1881 1396 1888 1393 z" stroke-linecap="round" />
</g>
		<g transform="matrix(0.13 0 0 -0.13 99.19 -8.06)" id="-H4RenflBjazP_Off0keL"  >
<path style="stroke: none; stroke-width: 1; stroke-dasharray: none; stroke-linecap: butt; stroke-dashoffset: 0; stroke-linejoin: miter; stroke-miterlimit: 4; fill: rgb(0,0,0); fill-rule: nonzero; opacity: 1;" vector-effect="non-scaling-stroke"  transform=" translate(-2013.94, -1365.48)" d="M 1964 1378 C 1953 1360 1992 1339 2029 1342 C 2077 1346 2078 1364 2032 1378 C 1983 1393 1973 1393 1964 1378 z" stroke-linecap="round" />
</g>
		<g transform="matrix(0.13 0 0 -0.13 -115.35 -6.62)" id="khC6DgnPZwvRFmQ_gzfDj"  >
<path style="stroke: none; stroke-width: 1; stroke-dasharray: none; stroke-linecap: butt; stroke-dashoffset: 0; stroke-linejoin: miter; stroke-miterlimit: 4; fill: rgb(0,0,0); fill-rule: nonzero; opacity: 1;" vector-effect="non-scaling-stroke"  transform=" translate(-404.9, -1354.63)" d="M 383 1363 C 370 1355 360 1344 360 1339 C 360 1326 424 1328 438 1342 C 472 1376 426 1394 383 1363 z" stroke-linecap="round" />
</g>
		<g transform="matrix(0.13 0 0 -0.13 74.73 70.11)" id="MZEICXqQq-8x7HmktyMu3"  >
<path style="stroke: none; stroke-width: 1; stroke-dasharray: none; stroke-linecap: butt; stroke-dashoffset: 0; stroke-linejoin: miter; stroke-miterlimit: 4; fill: rgb(0,0,0); fill-rule: nonzero; opacity: 1;" vector-effect="non-scaling-stroke"  transform=" translate(-1830.46, -779.21)" d="M 1671 819 C 1688 802 1706 795 1737 795 C 1764 794 1787 787 1802 775 L 1824 755 L 1806 783 C 1781 823 1793 828 1835 794 C 1915 730 1933 720 1973 720 C 2022 720 2016 728 1958 741 C 1934 747 1904 759 1890 768 L 1865 784 L 1895 791 C 1925 798 1925 798 1901 806 C 1878 813 1877 814 1896 822 C 1907 826 1867 829 1800 828 C 1737 827 1676 830 1666 835 C 1650 842 1651 839 1671 819 z" stroke-linecap="round" />
</g>
		<g transform="matrix(0.13 0 0 -0.13 -90.9 65.23)" id="I0pGehAwoZoSkRHfjmrlv"  >
<path style="stroke: none; stroke-width: 1; stroke-dasharray: none; stroke-linecap: butt; stroke-dashoffset: 0; stroke-linejoin: miter; stroke-miterlimit: 4; fill: rgb(0,0,0); fill-rule: nonzero; opacity: 1;" vector-effect="non-scaling-stroke"  transform=" translate(-588.22, -815.79)" d="M 575 821 C 529 815 527 814 554 807 C 586 798 640 807 640 821 C 640 826 637 829 633 828 C 628 828 603 824 575 821 z" stroke-linecap="round" />
</g>
		<g transform="matrix(0.13 0 0 -0.13 92.78 67.97)" id="W4uIeAog1ZVD6tr0kNgVI"  >
<path style="stroke: none; stroke-width: 1; stroke-dasharray: none; stroke-linecap: butt; stroke-dashoffset: 0; stroke-linejoin: miter; stroke-miterlimit: 4; fill: rgb(0,0,0); fill-rule: nonzero; opacity: 1;" vector-effect="non-scaling-stroke"  transform=" translate(-1965.86, -795.19)" d="M 1958 793 C 1965 790 1974 791 1977 794 C 1981 797 1975 800 1964 799 C 1953 799 1950 796 1958 793 z" stroke-linecap="round" />
</g>
		<g transform="matrix(0.13 0 0 -0.13 36.67 72.67)" id="x1MKdAMcfFW3BIfrfY0CZ"  >
<path style="stroke: none; stroke-width: 1; stroke-dasharray: none; stroke-linecap: butt; stroke-dashoffset: 0; stroke-linejoin: miter; stroke-miterlimit: 4; fill: rgb(0,0,0); fill-rule: nonzero; opacity: 1;" vector-effect="non-scaling-stroke"  transform=" translate(-1545, -760)" d="M 1540 760 C 1546 749 1553 740 1556 740 C 1558 740 1556 749 1550 760 C 1544 771 1537 780 1534 780 C 1532 780 1534 771 1540 760 z" stroke-linecap="round" />
</g>
		<g transform="matrix(0.13 0 0 -0.13 -64.22 80.18)" id="XBk1pMcLK1lOgwu3rgK1N"  >
<path style="stroke: none; stroke-width: 1; stroke-dasharray: none; stroke-linecap: butt; stroke-dashoffset: 0; stroke-linejoin: miter; stroke-miterlimit: 4; fill: rgb(0,0,0); fill-rule: nonzero; opacity: 1;" vector-effect="non-scaling-stroke"  transform=" translate(-788.35, -703.63)" d="M 817 750 C 803 739 784 730 773 729 C 763 729 746 724 735 719 C 717 711 717 710 740 711 C 782 713 783 711 761 674 L 740 638 L 769 662 C 785 674 804 697 810 712 C 817 727 825 738 829 736 C 833 733 841 740 848 751 C 864 776 850 775 817 750 z" stroke-linecap="round" />
</g>
		<g transform="matrix(0.13 0 0 -0.13 44.32 83.36)" id="2uONWUYmR0bcicCNPaqMx"  >
<path style="stroke: none; stroke-width: 1; stroke-dasharray: none; stroke-linecap: butt; stroke-dashoffset: 0; stroke-linejoin: miter; stroke-miterlimit: 4; fill: rgb(0,0,0); fill-rule: nonzero; opacity: 1;" vector-effect="non-scaling-stroke"  transform=" translate(-1602.38, -679.82)" d="M 1561 697 C 1561 679 1564 671 1567 678 C 1574 697 1588 693 1617 663 L 1644 635 L 1627 663 C 1617 678 1612 694 1615 699 C 1618 704 1606 713 1590 719 C 1561 729 1560 728 1561 697 z" stroke-linecap="round" />
</g>
		<g transform="matrix(0.13 0 0 -0.13 -57.33 83.13)" id="EfOJaeppOElmr9_ztF_ZI"  >
<path style="stroke: none; stroke-width: 1; stroke-dasharray: none; stroke-linecap: butt; stroke-dashoffset: 0; stroke-linejoin: miter; stroke-miterlimit: 4; fill: rgb(0,0,0); fill-rule: nonzero; opacity: 1;" vector-effect="non-scaling-stroke"  transform=" translate(-840.01, -681.52)" d="M 836 685 C 825 677 819 668 822 665 C 824 662 835 669 845 680 C 866 703 863 705 836 685 z" stroke-linecap="round" />
</g>
		<g transform="matrix(0.13 0 0 -0.13 37.67 97.02)" id="ItRVhC7VSimXUWm0BFE8K"  >
<path style="stroke: none; stroke-width: 1; stroke-dasharray: none; stroke-linecap: butt; stroke-dashoffset: 0; stroke-linejoin: miter; stroke-miterlimit: 4; fill: rgb(0,0,0); fill-rule: nonzero; opacity: 1;" vector-effect="non-scaling-stroke"  transform=" translate(-1552.51, -577.34)" d="M 1518 663 C 1514 655 1516 515 1520 490 C 1521 482 1528 511 1534 555 L 1545 635 L 1568 613 C 1593 587 1597 595 1574 628 C 1557 653 1523 674 1518 663 z" stroke-linecap="round" />
</g>
		<g transform="matrix(0.13 0 0 -0.13 64.95 95.93)" id="3IFLs-_3spRSvnfUCbUED"  >
<path style="stroke: none; stroke-width: 1; stroke-dasharray: none; stroke-linecap: butt; stroke-dashoffset: 0; stroke-linejoin: miter; stroke-miterlimit: 4; fill: rgb(0,0,0); fill-rule: nonzero; opacity: 1;" vector-effect="non-scaling-stroke"  transform=" translate(-1757.13, -585.52)" d="M 1695 630 C 1726 569 1747 546 1790 521 C 1814 508 1830 502 1826 509 C 1822 515 1806 527 1790 535 C 1774 543 1756 559 1750 570 C 1740 589 1741 590 1764 585 C 1845 568 1847 568 1826 585 C 1815 593 1791 600 1772 600 C 1747 600 1730 608 1708 633 L 1677 665 L 1695 630 z" stroke-linecap="round" />
</g>
		<g transform="matrix(0.13 0 0 -0.13 -83.98 96.57)" id="s6HYniykrFksDq1ixdhiY"  >
<path style="stroke: none; stroke-width: 1; stroke-dasharray: none; stroke-linecap: butt; stroke-dashoffset: 0; stroke-linejoin: miter; stroke-miterlimit: 4; fill: rgb(0,0,0); fill-rule: nonzero; opacity: 1;" vector-effect="non-scaling-stroke"  transform=" translate(-640.14, -580.75)" d="M 620 580 C 585 560 585 560 615 566 C 632 570 656 579 670 586 C 692 598 692 599 675 599 C 664 599 639 590 620 580 z" stroke-linecap="round" />
</g>
		<g transform="matrix(0.13 0 0 -0.13 47.38 106.89)" id="9rOxy9LuanZjhB_xIwJmO"  >
<path style="stroke: none; stroke-width: 1; stroke-dasharray: none; stroke-linecap: butt; stroke-dashoffset: 0; stroke-linejoin: miter; stroke-miterlimit: 4; fill: rgb(0,0,0); fill-rule: nonzero; opacity: 1;" vector-effect="non-scaling-stroke"  transform=" translate(-1625.38, -503.31)" d="M 1600 547 C 1600 522 1624 467 1642 453 C 1654 442 1654 448 1640 491 C 1621 547 1600 576 1600 547 z" stroke-linecap="round" />
</g>
		<g transform="matrix(0.13 0 0 -0.13 -64.43 102.77)" id="t18TajDcazw0YE6hHmMBw"  >
<path style="stroke: none; stroke-width: 1; stroke-dasharray: none; stroke-linecap: butt; stroke-dashoffset: 0; stroke-linejoin: miter; stroke-miterlimit: 4; fill: rgb(0,0,0); fill-rule: nonzero; opacity: 1;" vector-effect="non-scaling-stroke"  transform=" translate(-786.74, -534.19)" d="M 780 534 C 763 525 760 520 771 520 C 780 520 793 527 800 535 C 815 553 813 553 780 534 z" stroke-linecap="round" />
</g>
		<g transform="matrix(0.13 0 0 -0.13 -39.51 112.33)" id="-UNtf40O8EQtTbeGyU8D5"  >
<path style="stroke: none; stroke-width: 1; stroke-dasharray: none; stroke-linecap: butt; stroke-dashoffset: 0; stroke-linejoin: miter; stroke-miterlimit: 4; fill: rgb(0,0,0); fill-rule: nonzero; opacity: 1;" vector-effect="non-scaling-stroke"  transform=" translate(-973.7, -462.5)" d="M 980 523 C 951 485 930 433 931 401 L 932 375 L 939 400 C 943 414 950 440 955 458 C 959 476 973 498 986 506 C 1010 522 1026 550 1010 550 C 1005 550 992 538 980 523 z" stroke-linecap="round" />
</g>
		<g transform="matrix(0.13 0 0 -0.13 56.54 105.1)" id="xBaHhtu9IvQHG1waVbq6n"  >
<path style="stroke: none; stroke-width: 1; stroke-dasharray: none; stroke-linecap: butt; stroke-dashoffset: 0; stroke-linejoin: miter; stroke-miterlimit: 4; fill: rgb(0,0,0); fill-rule: nonzero; opacity: 1;" vector-effect="non-scaling-stroke"  transform=" translate(-1694.08, -516.72)" d="M 1680 521 C 1700 517 1722 510 1730 506 C 1738 502 1736 506 1726 514 C 1715 523 1692 529 1676 529 C 1645 528 1645 528 1680 521 z" stroke-linecap="round" />
</g>
		<g transform="matrix(0.13 0 0 -0.13 40.98 120.65)" id="VlSCfN-kHB-rK4_XgBr9n"  >
<path style="stroke: none; stroke-width: 1; stroke-dasharray: none; stroke-linecap: butt; stroke-dashoffset: 0; stroke-linejoin: miter; stroke-miterlimit: 4; fill: rgb(0,0,0); fill-rule: nonzero; opacity: 1;" vector-effect="non-scaling-stroke"  transform=" translate(-1577.37, -400.12)" d="M 1562 419 C 1569 407 1581 388 1587 376 C 1599 355 1600 356 1600 381 C 1600 395 1592 414 1582 423 C 1556 446 1547 444 1562 419 z" stroke-linecap="round" />
</g>
		<g transform="matrix(0.13 0 0 -0.13 -34.94 121.29)" id="0xsuB5vfEKK7n96oNQZ2M"  >
<path style="stroke: none; stroke-width: 1; stroke-dasharray: none; stroke-linecap: butt; stroke-dashoffset: 0; stroke-linejoin: miter; stroke-miterlimit: 4; fill: rgb(0,0,0); fill-rule: nonzero; opacity: 1;" vector-effect="non-scaling-stroke"  transform=" translate(-1007.99, -395.33)" d="M 1006 414 C 997 406 990 389 990 378 C 990 353 992 355 1014 398 C 1032 433 1030 438 1006 414 z" stroke-linecap="round" />
</g>
		<g transform="matrix(0.13 0 0 -0.13 -10.71 129.8)" id="rdW2vzAt1gh1s-Go69ceJ"  >
<path style="stroke: none; stroke-width: 1; stroke-dasharray: none; stroke-linecap: butt; stroke-dashoffset: 0; stroke-linejoin: miter; stroke-miterlimit: 4; fill: rgb(0,0,0); fill-rule: nonzero; opacity: 1;" vector-effect="non-scaling-stroke"  transform=" translate(-1189.66, -331.48)" d="M 1170 347 C 1170 326 1178 306 1190 295 C 1214 273 1216 282 1194 315 C 1185 329 1180 349 1183 360 C 1186 371 1184 380 1179 380 C 1174 380 1170 365 1170 347 z" stroke-linecap="round" />
</g>
		<g transform="matrix(0.13 0 0 -0.13 -140.67 156.56)" id="oHh2vGgHZ3IFY6PXDzAjC"  >
<path style="stroke: none; stroke-width: 1; stroke-dasharray: none; stroke-linecap: butt; stroke-dashoffset: 0; stroke-linejoin: miter; stroke-miterlimit: 4; fill: rgb(0,0,0); fill-rule: nonzero; opacity: 1;" vector-effect="non-scaling-stroke"  transform=" translate(-215, -130.81)" d="M 150 130 C 150 67 166 47 173 103 L 177 135 L 190 103 C 198 85 209 70 215 70 C 221 70 232 85 240 103 L 253 135 L 257 103 C 264 47 280 67 280 130 C 280 203 258 213 239 150 C 232 128 223 110 218 110 C 213 110 201 128 193 150 C 169 211 150 202 150 130 z" stroke-linecap="round" />
</g>
		<g transform="matrix(0.13 0 0 -0.13 -126.67 156.67)" id="U4ZJ1OY7qxKjAmLWhZ1XT"  >
<path style="stroke: none; stroke-width: 1; stroke-dasharray: none; stroke-linecap: butt; stroke-dashoffset: 0; stroke-linejoin: miter; stroke-miterlimit: 4; fill: rgb(0,0,0); fill-rule: nonzero; opacity: 1;" vector-effect="non-scaling-stroke"  transform=" translate(-320, -130)" d="M 310 130 C 310 97 314 70 320 70 C 326 70 330 97 330 130 C 330 163 326 190 320 190 C 314 190 310 163 310 130 z" stroke-linecap="round" />
</g>
		<g transform="matrix(0.13 0 0 -0.13 -114.61 157.03)" id="pVeDtt7BDFXLJ__7zjRVH"  >
<path style="stroke: none; stroke-width: 1; stroke-dasharray: none; stroke-linecap: butt; stroke-dashoffset: 0; stroke-linejoin: miter; stroke-miterlimit: 4; fill: rgb(0,0,0); fill-rule: nonzero; opacity: 1;" vector-effect="non-scaling-stroke"  transform=" translate(-410.44, -127.31)" d="M 361 128 C 362 79 364 73 369 99 C 377 147 391 147 418 100 C 431 77 445 62 450 65 C 463 73 463 190 451 190 C 445 190 440 171 438 148 L 435 105 L 407 148 C 392 171 375 190 370 190 C 364 190 361 163 361 128 z" stroke-linecap="round" />
</g>
		<g transform="matrix(0.13 0 0 -0.13 -96.73 157.22)" id="poGD2HZ8oRKatuzKoSJ2R"  >
<path style="stroke: none; stroke-width: 1; stroke-dasharray: none; stroke-linecap: butt; stroke-dashoffset: 0; stroke-linejoin: miter; stroke-miterlimit: 4; fill: rgb(0,0,0); fill-rule: nonzero; opacity: 1;" vector-effect="non-scaling-stroke"  transform=" translate(-544.5, -125.86)" d="M 492 128 C 495 68 496 65 522 62 C 554 58 600 97 600 127 C 600 165 571 190 529 190 L 489 190 L 492 128 z M 574 147 C 587 111 572 86 536 82 C 511 79 510 80 510 130 C 510 180 511 181 537 178 C 557 176 567 167 574 147 z" stroke-linecap="round" />
</g>
		<g transform="matrix(0.13 0 0 -0.13 -80 156.67)" id="qujZ43Q4n2VEw-jXUtxsL"  >
<path style="stroke: none; stroke-width: 1; stroke-dasharray: none; stroke-linecap: butt; stroke-dashoffset: 0; stroke-linejoin: miter; stroke-miterlimit: 4; fill: rgb(0,0,0); fill-rule: nonzero; opacity: 1;" vector-effect="non-scaling-stroke"  transform=" translate(-670, -130)" d="M 620 130 C 620 97 624 70 630 70 C 636 70 640 81 640 95 C 640 116 645 120 670 120 C 695 120 700 116 700 95 C 700 81 705 70 710 70 C 716 70 720 97 720 130 C 720 163 716 190 710 190 C 705 190 700 179 700 165 C 700 144 695 140 670 140 C 645 140 640 144 640 165 C 640 179 636 190 630 190 C 624 190 620 163 620 130 z" stroke-linecap="round" />
</g>
		<g transform="matrix(0.13 0 0 -0.13 -62.67 157.4)" id="QgHWIH4VDLr6Qml6aErc_"  >
<path style="stroke: none; stroke-width: 1; stroke-dasharray: none; stroke-linecap: butt; stroke-dashoffset: 0; stroke-linejoin: miter; stroke-miterlimit: 4; fill: rgb(0,0,0); fill-rule: nonzero; opacity: 1;" vector-effect="non-scaling-stroke"  transform=" translate(-800, -124.51)" d="M 750 141 C 750 88 767 60 799 60 C 830 60 850 93 850 143 C 850 207 832 203 828 138 C 825 89 823 85 800 85 C 777 85 775 89 772 138 C 768 204 750 207 750 141 z" stroke-linecap="round" />
</g>
		<g transform="matrix(0.13 0 0 -0.13 -46.33 157.34)" id="WhyhXCyO_jc7S71cbBeeL"  >
<path style="stroke: none; stroke-width: 1; stroke-dasharray: none; stroke-linecap: butt; stroke-dashoffset: 0; stroke-linejoin: miter; stroke-miterlimit: 4; fill: rgb(0,0,0); fill-rule: nonzero; opacity: 1;" vector-effect="non-scaling-stroke"  transform=" translate(-922.53, -124.91)" d="M 880 130 C 880 63 892 50 939 66 C 962 74 965 81 965 120 C 966 177 956 190 914 190 L 880 190 L 880 130 z M 945 160 C 945 152 935 144 923 142 C 905 139 900 144 900 160 C 900 176 905 181 923 178 C 935 176 945 168 945 160 z M 950 100 C 950 85 943 80 925 80 C 907 80 900 85 900 100 C 900 115 907 120 925 120 C 943 120 950 115 950 100 z" stroke-linecap="round" />
</g>
		<g transform="matrix(0.13 0 0 -0.13 -25 157.34)" id="kNIbxgNyuzU9De7jzV8JG"  >
<path style="stroke: none; stroke-width: 1; stroke-dasharray: none; stroke-linecap: butt; stroke-dashoffset: 0; stroke-linejoin: miter; stroke-miterlimit: 4; fill: rgb(0,0,0); fill-rule: nonzero; opacity: 1;" vector-effect="non-scaling-stroke"  transform=" translate(-1082.53, -124.91)" d="M 1040 130 C 1040 63 1052 50 1099 66 C 1122 74 1125 81 1125 120 C 1126 177 1116 190 1074 190 L 1040 190 L 1040 130 z M 1105 160 C 1105 152 1095 144 1083 142 C 1065 139 1060 144 1060 160 C 1060 176 1065 181 1083 178 C 1095 176 1105 168 1105 160 z M 1110 100 C 1110 85 1103 80 1085 80 C 1067 80 1060 85 1060 100 C 1060 115 1067 120 1085 120 C 1103 120 1110 115 1110 100 z" stroke-linecap="round" />
</g>
		<g transform="matrix(0.13 0 0 -0.13 -9.38 156.97)" id="WMY4WYkJX7l70B7mbqtWt"  >
<path style="stroke: none; stroke-width: 1; stroke-dasharray: none; stroke-linecap: butt; stroke-dashoffset: 0; stroke-linejoin: miter; stroke-miterlimit: 4; fill: rgb(0,0,0); fill-rule: nonzero; opacity: 1;" vector-effect="non-scaling-stroke"  transform=" translate(-1199.61, -127.75)" d="M 1161 128 C 1162 87 1164 74 1169 89 C 1179 126 1197 125 1216 88 C 1226 69 1235 61 1238 68 C 1240 75 1236 87 1229 96 C 1219 108 1220 116 1230 135 C 1247 167 1229 190 1189 190 C 1160 190 1160 190 1161 128 z M 1218 157 C 1222 137 1193 123 1178 138 C 1163 153 1177 182 1197 178 C 1207 176 1216 167 1218 157 z" stroke-linecap="round" />
</g>
		<g transform="matrix(0.13 0 0 -0.13 6.42 157.41)" id="EpyUe0LuJ17UUQR8WEKHZ"  >
<path style="stroke: none; stroke-width: 1; stroke-dasharray: none; stroke-linecap: butt; stroke-dashoffset: 0; stroke-linejoin: miter; stroke-miterlimit: 4; fill: rgb(0,0,0); fill-rule: nonzero; opacity: 1;" vector-effect="non-scaling-stroke"  transform=" translate(-1318.17, -124.41)" d="M 1271 176 C 1264 168 1260 144 1262 124 C 1266 78 1307 47 1337 66 C 1396 102 1383 183 1319 188 C 1297 190 1279 186 1271 176 z M 1348 168 C 1365 151 1363 105 1346 90 C 1338 84 1321 80 1308 82 C 1289 84 1284 92 1282 124 C 1279 164 1290 180 1321 180 C 1329 180 1341 175 1348 168 z" stroke-linecap="round" />
</g>
		<g transform="matrix(0.13 0 0 -0.13 21.07 156.78)" id="FH6xb6dm_541YbR1F3Hhb"  >
<path style="stroke: none; stroke-width: 1; stroke-dasharray: none; stroke-linecap: butt; stroke-dashoffset: 0; stroke-linejoin: miter; stroke-miterlimit: 4; fill: rgb(0,0,0); fill-rule: nonzero; opacity: 1;" vector-effect="non-scaling-stroke"  transform=" translate(-1428.05, -129.12)" d="M 1398 180 C 1417 172 1420 163 1420 120 C 1420 93 1425 70 1430 70 C 1436 70 1440 94 1440 124 C 1440 173 1442 179 1463 183 C 1475 185 1460 188 1430 188 C 1388 189 1380 187 1398 180 z" stroke-linecap="round" />
</g>
		<g transform="matrix(0.13 0 0 -0.13 35.94 156.67)" id="xf1-J8fKSuU7Y1QM0tzYH"  >
<path style="stroke: none; stroke-width: 1; stroke-dasharray: none; stroke-linecap: butt; stroke-dashoffset: 0; stroke-linejoin: miter; stroke-miterlimit: 4; fill: rgb(0,0,0); fill-rule: nonzero; opacity: 1;" vector-effect="non-scaling-stroke"  transform=" translate(-1539.58, -130)" d="M 1490 130 C 1490 97 1494 70 1500 70 C 1506 70 1510 82 1510 96 C 1510 118 1513 121 1542 118 C 1567 116 1576 109 1581 90 C 1586 73 1588 86 1589 128 C 1590 162 1586 190 1582 190 C 1577 190 1574 180 1574 168 C 1575 149 1569 144 1543 142 C 1513 139 1510 141 1510 164 C 1510 178 1506 190 1500 190 C 1494 190 1490 163 1490 130 z" stroke-linecap="round" />
</g>
		<g transform="matrix(0.13 0 0 -0.13 51.27 157.24)" id="50dTqpnvHw5E4hK7fkyOO"  >
<path style="stroke: none; stroke-width: 1; stroke-dasharray: none; stroke-linecap: butt; stroke-dashoffset: 0; stroke-linejoin: miter; stroke-miterlimit: 4; fill: rgb(0,0,0); fill-rule: nonzero; opacity: 1;" vector-effect="non-scaling-stroke"  transform=" translate(-1654.5, -125.69)" d="M 1622 128 C 1625 65 1625 65 1658 62 C 1676 60 1690 63 1690 69 C 1690 75 1679 80 1665 80 C 1647 80 1640 85 1640 100 C 1640 115 1647 120 1665 120 C 1679 120 1690 125 1690 130 C 1690 136 1678 140 1664 140 C 1630 140 1635 171 1670 181 C 1691 187 1689 188 1657 189 L 1619 190 L 1622 128 z" stroke-linecap="round" />
</g>
		<g transform="matrix(0.13 0 0 -0.13 72.03 157.22)" id="Mez7jEs7VEg0vyINV-qAe"  >
<path style="stroke: none; stroke-width: 1; stroke-dasharray: none; stroke-linecap: butt; stroke-dashoffset: 0; stroke-linejoin: miter; stroke-miterlimit: 4; fill: rgb(0,0,0); fill-rule: nonzero; opacity: 1;" vector-effect="non-scaling-stroke"  transform=" translate(-1810.25, -125.88)" d="M 1720 130 C 1720 73 1735 46 1742 92 C 1746 123 1763 124 1781 92 C 1793 71 1805 64 1834 62 C 1902 58 1925 106 1869 135 C 1833 154 1836 172 1876 182 C 1903 188 1903 188 1870 187 C 1842 185 1834 181 1832 162 C 1829 146 1837 135 1859 122 C 1899 100 1893 86 1843 82 C 1809 79 1801 82 1795 99 C 1792 110 1794 129 1800 140 C 1816 169 1797 190 1754 190 L 1720 190 L 1720 130 z M 1786 169 C 1794 155 1765 126 1751 134 C 1745 138 1740 150 1740 161 C 1740 182 1774 188 1786 169 z" stroke-linecap="round" />
</g>
		<g transform="matrix(0.13 0 0 -0.13 99 157.28)" id="4nIko9r5nBrjhZv7yZ5jo"  >
<path style="stroke: none; stroke-width: 1; stroke-dasharray: none; stroke-linecap: butt; stroke-dashoffset: 0; stroke-linejoin: miter; stroke-miterlimit: 4; fill: rgb(0,0,0); fill-rule: nonzero; opacity: 1;" vector-effect="non-scaling-stroke"  transform=" translate(-2012.5, -125.41)" d="M 1970 130 C 1970 63 1982 50 2029 66 C 2053 75 2055 80 2055 130 L 2055 185 L 2013 188 L 1970 191 L 1970 130 z M 2035 160 C 2035 152 2025 144 2013 142 C 1995 139 1990 144 1990 160 C 1990 176 1995 181 2013 178 C 2025 176 2035 168 2035 160 z M 2043 114 C 2055 102 2037 80 2014 80 C 1997 80 1990 86 1990 100 C 1990 114 1997 120 2013 120 C 2026 120 2039 117 2043 114 z" stroke-linecap="round" />
</g>
		<g transform="matrix(0.13 0 0 -0.13 114.11 156.89)" id="4oWBOrDP32B1GE8qWwS27"  >
<path style="stroke: none; stroke-width: 1; stroke-dasharray: none; stroke-linecap: butt; stroke-dashoffset: 0; stroke-linejoin: miter; stroke-miterlimit: 4; fill: rgb(0,0,0); fill-rule: nonzero; opacity: 1;" vector-effect="non-scaling-stroke"  transform=" translate(-2125.83, -128.31)" d="M 2116 182 C 2100 156 2072 70 2079 70 C 2084 70 2090 77 2094 85 C 2102 106 2147 104 2159 83 C 2179 46 2179 79 2157 133 C 2136 188 2127 199 2116 182 z M 2137 124 C 2128 115 2109 130 2116 142 C 2120 148 2126 148 2133 141 C 2139 135 2141 128 2137 124 z" stroke-linecap="round" />
</g>
		<g transform="matrix(0.13 0 0 -0.13 130.73 157.03)" id="v8dMKxtF-CBwyXPczWovT"  >
<path style="stroke: none; stroke-width: 1; stroke-dasharray: none; stroke-linecap: butt; stroke-dashoffset: 0; stroke-linejoin: miter; stroke-miterlimit: 4; fill: rgb(0,0,0); fill-rule: nonzero; opacity: 1;" vector-effect="non-scaling-stroke"  transform=" translate(-2250.44, -127.31)" d="M 2201 128 C 2202 79 2204 73 2209 99 C 2217 147 2231 147 2258 100 C 2271 77 2285 62 2290 65 C 2303 73 2303 190 2291 190 C 2285 190 2280 171 2278 148 L 2275 105 L 2247 148 C 2232 171 2215 190 2210 190 C 2204 190 2201 163 2201 128 z" stroke-linecap="round" />
</g>
		<g transform="matrix(0.13 0 0 -0.13 147.15 157.08)" id="w3HkdnnJu5sWnkNZWhVFP"  >
<path style="stroke: none; stroke-width: 1; stroke-dasharray: none; stroke-linecap: butt; stroke-dashoffset: 0; stroke-linejoin: miter; stroke-miterlimit: 4; fill: rgb(0,0,0); fill-rule: nonzero; opacity: 1;" vector-effect="non-scaling-stroke"  transform=" translate(-2373.59, -126.93)" d="M 2330 130 C 2330 97 2334 70 2340 70 C 2346 70 2350 79 2350 90 C 2350 117 2368 115 2392 84 C 2420 50 2427 62 2401 98 C 2375 135 2375 138 2402 167 C 2414 180 2419 190 2413 190 C 2408 190 2395 181 2385 170 C 2375 159 2363 150 2358 150 C 2354 150 2350 159 2350 170 C 2350 181 2346 190 2340 190 C 2334 190 2330 163 2330 130 z" stroke-linecap="round" />
</g>
</g>
</g>
</svg>