<?xml version="1.0" standalone="no"?>
<!DOCTYPE svg PUBLIC "-//W3C//DTD SVG 20010904//EN"
 "http://www.w3.org/TR/2001/REC-SVG-20010904/DTD/svg10.dtd">
<svg version="1.0" xmlns="http://www.w3.org/2000/svg"
 width="254.000000pt" height="261.000000pt" viewBox="0 0 254.000000 261.000000"
 preserveAspectRatio="xMidYMid meet">

<g transform="translate(0.000000,261.000000) scale(0.100000,-0.100000)"
fill="#000000" stroke="none">
<path d="M1322 2579 c-37 -14 -21 -34 27 -32 44 2 75 18 65 34 -7 12 -62 10
-92 -2z"/>
<path d="M1187 2538 c10 -52 43 -67 43 -20 0 30 -16 52 -37 52 -9 0 -11 -10
-6 -32z"/>
<path d="M1000 2540 c0 -15 61 -50 87 -50 34 0 36 17 4 39 -30 22 -91 29 -91
11z"/>
<path d="M1395 2517 c-40 -13 -65 -36 -65 -59 0 -23 7 -23 47 2 28 17 60 57
51 64 -2 2 -16 -1 -33 -7z"/>
<path d="M1630 2499 c0 -27 35 -59 66 -59 l25 0 -26 34 c-31 41 -65 54 -65 25z"/>
<path d="M847 2492 c-17 -19 -23 -52 -9 -52 18 0 52 33 52 51 0 24 -22 25 -43
1z"/>
<path d="M1480 2470 c-13 -31 -8 -60 10 -60 18 0 31 49 20 71 -14 25 -15 24
-30 -11z"/>
<path d="M1267 2483 c-22 -39 -17 -103 8 -103 22 0 30 64 12 90 -8 12 -17 18
-20 13z"/>
<path d="M932 2435 c2 -38 7 -51 21 -53 25 -5 23 49 -3 79 l-20 24 2 -50z"/>
<path d="M1010 2441 c0 -37 19 -68 33 -54 10 10 8 52 -3 74 -17 31 -30 22 -30
-20z"/>
<path d="M1135 2440 c30 -31 75 -41 75 -16 0 21 -40 46 -74 46 l-30 0 29 -30z"/>
<path d="M1383 2410 c-24 -11 -44 -28 -48 -40 -9 -29 -1 -34 31 -18 27 13 72
64 63 72 -2 2 -23 -5 -46 -14z"/>
<path d="M1567 2391 c-28 -34 -32 -61 -10 -68 18 -6 45 42 41 73 l-3 28 -28
-33z"/>
<path d="M877 2400 c-15 -43 -13 -81 5 -97 37 -34 45 23 12 87 -9 19 -14 21
-17 10z"/>
<path d="M747 2393 c-11 -10 24 -43 45 -43 20 0 24 20 6 38 -13 13 -41 16 -51
5z"/>
<path d="M1175 2340 c33 -35 65 -40 65 -10 0 23 -28 40 -66 40 l-28 0 29 -30z"/>
<path d="M1747 2352 c-18 -20 -23 -57 -8 -67 13 -8 41 35 41 62 0 28 -11 29
-33 5z"/>
<path d="M1473 2338 c-25 -28 -35 -59 -25 -76 12 -18 48 24 57 66 8 38 -3 41
-32 10z"/>
<path d="M1071 2319 c-13 -39 -14 -76 -2 -84 23 -14 41 73 22 103 -6 10 -11 5
-20 -19z"/>
<path d="M1370 2339 c-28 -11 -40 -26 -40 -51 0 -26 15 -22 55 13 51 45 44 61
-15 38z"/>
<path d="M608 2329 c-28 -11 -44 -37 -30 -51 13 -13 58 11 71 38 12 27 5 29
-41 13z"/>
<path d="M1830 2305 c-22 -36 -21 -93 1 -79 14 9 39 68 39 94 0 30 -16 24 -40
-15z"/>
<path d="M1644 2308 c-13 -29 -7 -58 12 -58 16 0 29 42 20 65 -8 22 -21 18
-32 -7z"/>
<path d="M676 2294 c-8 -30 14 -62 33 -50 17 11 13 41 -8 60 -18 16 -19 16
-25 -10z"/>
<path d="M980 2295 c-18 -19 -21 -31 -16 -56 5 -27 4 -30 -12 -24 -58 24 -72
28 -78 22 -4 -4 5 -21 21 -37 32 -33 73 -40 81 -12 3 9 14 34 24 54 21 38 26
78 12 78 -5 0 -19 -11 -32 -25z"/>
<path d="M770 2302 c0 -16 36 -42 58 -42 27 0 29 26 3 40 -24 12 -61 13 -61 2z"/>
<path d="M1577 2269 c-15 -53 -5 -135 14 -123 5 3 9 0 9 -5 0 -6 -4 -11 -10
-11 -5 0 -17 -15 -26 -32 -17 -33 -17 -33 3 -15 20 17 21 17 27 -8 4 -14 10
-25 15 -25 13 0 34 47 28 63 -3 8 0 20 6 26 8 8 5 11 -11 11 -20 0 -22 5 -22
53 0 29 -6 61 -13 72 -13 17 -14 17 -20 -6z"/>
<path d="M1291 2254 c0 -11 3 -14 6 -6 3 7 2 16 -1 19 -3 4 -6 -2 -5 -13z"/>
<path d="M1921 2246 c-16 -20 14 -36 66 -36 l38 1 -28 24 c-32 28 -59 32 -76
11z"/>
<path d="M530 2232 c0 -14 40 -52 55 -52 18 0 19 14 5 41 -10 18 -60 28 -60
11z"/>
<path d="M750 2234 c0 -5 9 -24 20 -41 15 -25 27 -33 49 -33 46 0 46 17 1 45
-51 32 -70 40 -70 29z"/>
<path d="M1165 2219 c4 -13 14 -32 23 -41 14 -17 13 -18 -12 -18 -18 0 -29 7
-35 23 -8 20 -11 18 -31 -26 -14 -31 -19 -55 -14 -70 10 -30 13 -77 5 -77 -3
0 -17 9 -31 20 -45 35 -46 21 -1 -20 24 -22 47 -40 50 -40 4 0 36 -24 72 -53
48 -41 68 -65 81 -100 16 -44 9 -66 -10 -32 -5 10 -15 13 -26 9 -15 -6 -13 -9
13 -25 28 -17 49 -54 37 -67 -4 -3 -12 0 -18 6 -14 14 -58 16 -58 4 0 -5 14
-21 30 -37 33 -32 35 -42 18 -80 -11 -24 -48 -36 -48 -15 0 16 -88 127 -118
149 l-27 20 30 1 c31 0 75 24 75 41 0 12 -67 12 -75 -1 -3 -5 -15 -14 -25 -20
-22 -12 -56 15 -83 65 -18 33 -23 21 -7 -19 11 -30 9 -31 -30 -11 -17 9 -42
20 -56 25 l-27 11 18 -28 c27 -43 57 -63 96 -63 20 0 42 -7 49 -15 25 -30 -29
-30 -134 2 -12 3 -16 1 -11 -6 7 -12 -2 -11 -89 11 -47 12 -130 53 -147 74
-12 15 -29 19 -29 7 1 -8 45 -37 133 -88 27 -15 85 -40 129 -56 61 -21 85 -35
104 -60 29 -39 28 -38 7 -33 -17 5 -40 -10 -106 -68 -17 -16 -39 -28 -49 -28
-10 0 -18 -4 -18 -10 0 -18 44 -10 100 18 48 24 60 27 100 19 51 -10 114 -56
136 -99 9 -16 14 -32 12 -34 -2 -2 -21 2 -41 8 -62 19 -63 -3 -1 -47 l56 -40
-5 -90 c-11 -190 -94 -303 -237 -321 -62 -7 -120 -31 -120 -48 0 -6 -14 -17
-31 -25 -26 -11 -41 -12 -82 -2 -54 12 -75 8 -36 -8 52 -20 65 -24 82 -22 9 1
17 -3 17 -8 0 -6 18 7 40 29 26 26 49 40 66 40 14 0 23 4 20 9 -3 5 8 6 27 2
17 -4 44 -4 59 0 37 10 27 -15 -13 -31 -16 -7 -29 -20 -29 -29 0 -13 -2 -14
-9 -2 -8 12 -13 12 -35 -3 -33 -21 -33 -28 -1 -20 28 7 30 2 15 -27 -18 -32
-4 -21 25 21 15 22 38 43 50 46 12 3 40 23 61 45 23 23 47 39 61 39 20 0 23
-4 17 -27 -18 -73 -65 -123 -157 -168 -34 -16 -61 -36 -60 -42 2 -7 -3 -13
-11 -13 -15 0 -33 -26 -55 -75 l-13 -30 31 29 31 30 0 -47 c0 -29 -8 -60 -22
-84 -18 -31 -19 -35 -4 -24 21 17 47 66 40 74 -3 3 2 17 11 31 11 17 16 40 13
65 -3 39 -2 41 47 66 28 14 55 25 60 25 6 0 19 10 29 22 l19 22 8 -22 c10 -28
-14 -105 -42 -133 -10 -10 -19 -27 -19 -36 1 -17 1 -17 11 0 12 20 29 14 29
-11 0 -10 -9 -35 -20 -57 -11 -21 -18 -40 -16 -42 8 -8 46 56 46 77 0 11 4 19
9 16 5 -4 7 2 4 13 -11 41 18 29 42 -18 30 -61 31 -94 4 -145 -11 -21 -18 -40
-16 -42 2 -2 10 7 17 21 7 14 22 25 33 25 18 0 19 5 14 44 -4 25 -16 60 -27
78 -11 18 -20 41 -20 52 0 21 63 -66 86 -118 11 -27 13 -28 14 -8 0 25 -21 63
-57 102 -34 38 -33 109 2 185 26 57 29 59 38 37 9 -20 6 -33 -16 -72 -35 -62
-35 -86 0 -37 32 46 47 48 39 4 -21 -112 -21 -113 23 -172 23 -30 47 -55 54
-55 14 0 35 -55 47 -120 l7 -45 2 43 1 44 33 -7 c17 -4 41 -15 51 -24 16 -13
18 -13 14 -1 -4 14 -15 21 -79 50 -27 12 -65 67 -55 77 3 4 24 -3 45 -15 21
-12 46 -22 55 -22 9 0 28 -12 41 -26 14 -15 25 -22 25 -15 0 19 -47 61 -70 61
-29 0 -34 2 -45 15 -5 6 -32 20 -58 29 -58 22 -79 51 -75 103 3 34 6 38 28 35
13 -1 35 -13 48 -25 l25 -22 -12 22 c-6 12 -20 25 -31 28 -11 3 -20 9 -21 13
0 4 -2 15 -4 25 -2 9 1 15 6 12 15 -10 22 43 10 76 -17 49 -14 53 20 25 17
-14 34 -26 39 -26 14 0 30 -55 29 -102 -2 -47 20 -98 42 -98 5 0 0 13 -11 28
-19 25 -20 37 -14 90 3 34 10 62 15 62 5 0 24 -14 44 -31 19 -17 35 -26 35
-21 0 19 -74 83 -102 89 -16 3 -28 12 -28 19 0 8 -4 14 -8 14 -5 0 -16 17 -24
39 l-15 38 51 -33 c28 -19 56 -34 64 -34 7 0 26 -7 42 -15 17 -9 30 -11 30 -6
0 5 -7 11 -15 15 -26 10 -17 29 11 22 45 -12 98 -52 124 -94 14 -23 30 -41 35
-40 15 2 66 -13 100 -29 l30 -14 -23 20 c-13 12 -42 26 -63 33 -24 7 -52 26
-70 47 -49 59 -73 81 -88 81 -8 0 -23 8 -33 17 -14 13 -21 14 -30 5 -7 -7 -16
-12 -22 -12 -5 0 -2 6 9 13 11 9 38 13 71 11 29 -2 56 1 59 5 9 15 -28 22 -81
15 -31 -3 -67 -1 -88 6 -40 13 -100 77 -111 118 -9 38 -21 272 -14 272 4 0 9
13 12 29 10 49 39 105 62 123 27 20 158 31 191 16 12 -6 28 -25 37 -43 9 -19
26 -39 38 -45 20 -11 21 -10 17 19 -6 40 5 40 82 1 33 -17 63 -29 67 -28 18 3
127 -55 145 -78 11 -13 29 -29 40 -35 20 -11 21 -9 15 21 -6 28 -5 31 11 25
65 -25 97 -27 137 -10 l40 18 -40 9 c-22 5 -64 7 -94 4 -35 -3 -70 1 -100 11
-69 23 -151 65 -145 74 2 5 -18 11 -46 15 -33 4 -47 10 -38 15 9 6 -4 15 -41
32 l-53 23 40 12 c21 7 52 12 68 13 l29 1 -28 8 c-18 6 -36 4 -55 -5 -39 -20
-212 -26 -212 -7 1 20 58 47 102 48 28 0 58 8 75 20 l28 19 -37 3 c-46 4 -48
15 -8 49 17 13 30 31 30 40 0 16 46 58 94 86 17 10 22 15 11 11 -61 -20 -61
-21 -32 29 14 26 24 47 22 47 -7 0 -75 -110 -75 -120 0 -6 -4 -10 -10 -10 -5
0 -30 -20 -56 -45 -58 -57 -84 -72 -84 -50 0 18 -40 12 -80 -13 l-25 -15 28
-10 c15 -5 27 -12 27 -15 -1 -12 -175 -90 -178 -80 -6 14 26 56 48 63 11 3 20
14 20 23 0 9 15 27 34 40 23 16 34 31 34 48 l0 25 -22 -20 c-12 -12 -29 -21
-37 -21 -18 0 -59 -41 -59 -58 0 -7 -5 -12 -11 -12 -6 0 -9 -6 -6 -14 4 -9 0
-12 -13 -9 -15 4 -17 10 -10 26 4 12 13 42 20 67 7 25 21 61 31 81 11 20 19
54 19 75 l-1 39 -22 -27 c-46 -56 -53 -24 -21 99 14 56 23 112 20 131 -3 20 2
48 14 75 11 23 20 55 20 71 0 28 -1 29 -20 11 -11 -10 -22 -26 -26 -37 -8 -26
-24 -11 -34 34 -7 30 -8 31 -9 6 -1 -15 8 -50 19 -78 21 -52 19 -70 -5 -70
-11 0 -11 -4 0 -28 14 -28 10 -72 -6 -72 -5 0 -9 4 -9 10 0 11 -49 45 -55 38
-8 -8 26 -81 44 -94 12 -10 13 -16 5 -24 -9 -9 -26 -1 -69 34 -31 26 -67 53
-80 62 -32 21 -38 56 -18 101 10 21 19 40 20 42 1 2 14 -4 27 -13 14 -9 37
-16 51 -16 22 0 24 3 15 19 -14 27 -13 31 10 31 39 0 19 26 -54 70 l-38 23 7
-24z m142 -531 c-3 -8 -6 -5 -6 6 -1 11 2 17 5 13 3 -3 4 -12 1 -19z m-329 -5
c2 -8 -5 -13 -20 -12 -20 1 -21 2 -3 7 l20 5 -20 8 c-19 8 -19 9 -1 6 11 -1
21 -8 24 -14z m91 -29 c10 -9 -45 -3 -59 6 -11 7 -5 8 20 4 19 -4 37 -8 39
-10z m77 -89 c-6 -21 -52 -1 -88 37 l-37 40 30 -4 c16 -3 29 0 29 6 1 6 16 -7
35 -29 19 -22 33 -44 31 -50z m132 -136 c-3 -8 -7 -3 -11 10 -4 17 -3 21 5 13
5 -5 8 -16 6 -23z m59 -36 c-3 -10 -5 -4 -5 12 0 17 2 24 5 18 2 -7 2 -21 0
-30z m-53 -29 c-6 -25 -8 -26 -14 -9 -4 11 -2 25 4 31 15 17 18 11 10 -22z
m113 -470 c-3 -3 -12 -4 -19 -1 -8 3 -5 6 6 6 11 1 17 -2 13 -5z m40 -30 c-3
-3 -12 -4 -19 -1 -8 3 -5 6 6 6 11 1 17 -2 13 -5z m20 -30 c-3 -3 -12 -4 -19
-1 -8 3 -5 6 6 6 11 1 17 -2 13 -5z"/>
<path d="M655 2217 c-12 -29 -1 -82 18 -85 13 -3 17 3 17 30 -1 40 -26 80 -35
55z"/>
<path d="M447 2184 c-6 -33 7 -64 28 -64 21 0 19 43 -4 71 l-18 22 -6 -29z"/>
<path d="M1016 2170 c-16 -33 -20 -35 -64 -32 -30 1 -54 -3 -66 -13 -27 -21
-18 -26 49 -26 47 -1 62 -5 78 -23 10 -11 16 -16 13 -10 -3 6 2 26 10 44 13
24 14 39 7 63 l-10 32 -17 -35z"/>
<path d="M1480 2175 c-6 -16 -14 -47 -17 -68 -5 -31 -9 -36 -24 -32 -18 6 -18
4 -4 -35 8 -23 26 -56 41 -72 22 -27 24 -37 18 -72 -4 -23 -7 -48 -8 -56 -3
-24 -34 -89 -51 -106 -8 -9 -15 -23 -15 -33 0 -9 -5 -22 -12 -29 -9 -9 -9 -12
2 -12 16 1 70 44 70 57 0 4 7 17 15 27 15 20 15 20 29 0 14 -18 16 -18 50 16
22 22 35 46 37 65 6 83 -10 100 -30 33 l-13 -42 -19 25 c-17 21 -19 37 -15
114 l4 90 -17 -39 c-25 -58 -36 -29 -21 58 8 48 9 82 2 106 l-9 35 -13 -30z"/>
<path d="M1685 2180 c-12 -19 7 -30 53 -30 64 0 84 14 41 29 -40 14 -86 14
-94 1z"/>
<path d="M1935 2168 c-27 -14 -45 -38 -45 -60 0 -38 50 -7 79 50 13 25 1 29
-34 10z"/>
<path d="M540 2142 c0 -21 18 -42 37 -42 20 0 15 38 -6 50 -27 14 -31 13 -31
-8z"/>
<path d="M1828 2135 c-20 -27 -23 -51 -8 -60 17 -11 40 15 40 46 0 37 -11 42
-32 14z"/>
<path d="M2032 2138 c-27 -27 -14 -41 33 -35 56 6 66 14 41 33 -24 17 -58 18
-74 2z"/>
<path d="M754 2113 c12 -47 65 -72 58 -27 -3 20 -37 54 -54 54 -6 0 -7 -11 -4
-27z"/>
<path d="M625 2108 c-10 -26 -2 -63 16 -66 25 -5 30 34 9 61 -16 19 -19 20
-25 5z"/>
<path d="M1664 2092 c-11 -7 -34 -45 -34 -56 0 -5 46 -20 93 -30 19 -5 27 -2
27 8 0 8 -7 16 -15 20 -21 8 -19 21 8 33 22 11 22 11 -6 22 -33 13 -57 14 -73
3z"/>
<path d="M427 2058 c8 -30 22 -48 39 -48 21 0 17 48 -5 60 -30 16 -40 12 -34
-12z"/>
<path d="M1917 2032 c-15 -28 -27 -58 -27 -69 0 -10 -6 -25 -12 -32 -11 -10
-9 -11 7 -5 44 17 87 104 68 138 -8 14 -14 9 -36 -32z"/>
<path d="M536 2038 c15 -48 22 -64 37 -76 13 -11 16 -10 21 6 9 26 -9 68 -33
81 -29 16 -33 14 -25 -11z"/>
<path d="M1987 2032 c-20 -22 -22 -52 -4 -52 20 0 37 22 37 47 0 28 -11 29
-33 5z"/>
<path d="M706 2025 c-16 -42 1 -115 26 -115 7 0 9 19 6 55 -5 59 -21 89 -32
60z"/>
<path d="M973 2024 c3 -4 -3 -24 -14 -45 -15 -31 -17 -44 -9 -59 6 -11 8 -25
5 -30 -3 -5 -2 -11 3 -14 12 -7 34 60 36 111 1 31 -3 43 -13 43 -8 0 -12 -3
-8 -6z"/>
<path d="M810 2011 c0 -17 38 -51 58 -51 9 0 23 4 31 9 11 7 9 12 -10 24 -33
22 -79 32 -79 18z"/>
<path d="M1804 2009 c-11 -19 -15 -149 -4 -149 17 0 30 38 30 87 0 55 -12 84
-26 62z"/>
<path d="M2125 2013 c-42 -11 -58 -37 -27 -45 29 -8 62 9 62 32 0 21 -1 21
-35 13z"/>
<path d="M347 1982 c-17 -19 -23 -53 -9 -51 19 2 67 37 67 50 0 21 -39 22 -58
1z"/>
<path d="M435 1966 c-18 -13 -17 -15 20 -25 81 -22 120 -10 73 23 -28 20 -68
20 -93 2z"/>
<path d="M1068 1973 c7 -3 16 -2 19 1 4 3 -2 6 -13 5 -11 0 -14 -3 -6 -6z"/>
<path d="M648 1954 c-14 -13 -8 -89 8 -112 34 -49 46 14 16 81 -9 21 -20 35
-24 31z"/>
<path d="M1370 1952 c0 -36 42 -112 62 -112 14 0 9 54 -8 78 -17 24 -54 48
-54 34z"/>
<path d="M1662 1949 c8 -25 53 -40 84 -29 37 15 19 31 -41 38 -38 4 -47 2 -43
-9z"/>
<path d="M780 1901 c0 -28 7 -48 25 -68 l24 -28 1 38 c0 40 -24 97 -40 97 -6
0 -10 -18 -10 -39z"/>
<path d="M1972 1928 c7 -20 65 -50 89 -46 21 3 21 3 -4 31 -27 28 -93 40 -85
15z"/>
<path d="M1040 1904 c0 -20 56 -64 81 -64 41 0 43 16 7 38 -38 23 -88 38 -88
26z"/>
<path d="M1855 1897 c-24 -18 -13 -23 63 -32 67 -7 79 2 40 29 -28 20 -78 21
-103 3z"/>
<path d="M373 1893 c-21 -8 -15 -23 14 -34 20 -7 30 -6 41 5 26 26 -12 47 -55
29z"/>
<path d="M1700 1883 c-17 -26 -35 -30 -44 -8 -3 8 -10 15 -16 15 -15 0 -12
-74 5 -96 8 -10 15 -28 15 -39 1 -15 3 -16 7 -5 4 8 17 29 30 47 18 23 23 42
21 70 -3 37 -3 38 -18 16z"/>
<path d="M2116 1884 c-18 -17 -21 -44 -6 -44 19 0 99 44 94 52 -9 14 -72 9
-88 -8z"/>
<path d="M286 1864 c-19 -50 11 -131 35 -93 13 21 11 46 -6 79 -18 34 -21 36
-29 14z"/>
<path d="M503 1858 c-12 -6 -24 -17 -27 -24 -4 -11 8 -14 54 -14 66 0 81 11
48 34 -26 18 -44 19 -75 4z"/>
<path d="M2173 1828 c-39 -44 -40 -88 -2 -67 24 13 42 55 31 75 -7 12 -12 10
-29 -8z"/>
<path d="M2030 1805 c0 -17 35 -55 50 -55 13 0 13 26 0 51 -13 22 -50 26 -50
4z"/>
<path d="M1883 1803 c-21 -8 -15 -20 15 -31 45 -17 76 -22 90 -13 10 6 5 14
-21 30 -33 20 -59 25 -84 14z"/>
<path d="M379 1743 c-3 -58 10 -93 32 -93 13 0 11 65 -3 95 -15 33 -28 32 -29
-2z"/>
<path d="M482 1761 c-18 -11 28 -41 63 -41 30 0 32 11 7 33 -20 18 -49 22 -70
8z"/>
<path d="M244 1716 c-18 -14 -18 -15 9 -25 63 -24 110 1 52 27 -33 15 -37 15
-61 -2z"/>
<path d="M674 1698 c3 -13 6 -26 6 -30 0 -4 21 -18 48 -31 34 -17 59 -22 89
-19 25 2 60 -3 87 -13 24 -9 50 -15 58 -13 23 8 -99 38 -156 38 -54 0 -56 1
-70 34 -20 48 -74 77 -62 34z"/>
<path d="M1541 1711 c-32 -9 -51 -38 -32 -50 19 -12 49 -2 66 22 26 37 18 43
-34 28z"/>
<path d="M1790 1695 c-11 -13 -8 -16 19 -21 37 -8 39 -19 7 -53 -31 -34 -43
-71 -23 -71 24 0 67 58 67 91 0 23 5 30 27 35 25 7 25 8 8 20 -25 19 -89 18
-105 -1z"/>
<path d="M2072 1694 c-10 -5 -9 -10 4 -25 23 -25 76 -25 99 1 18 19 17 20 -7
20 -14 0 -38 2 -54 5 -16 2 -35 2 -42 -1z"/>
<path d="M1946 1646 c-51 -47 -46 -73 7 -44 28 15 46 38 47 61 0 25 -14 21
-54 -17z"/>
<path d="M303 1653 c-27 -5 -53 -33 -32 -34 8 0 51 -4 97 -7 45 -4 82 -7 82
-6 0 1 -15 11 -34 22 -37 22 -80 32 -113 25z"/>
<path d="M540 1610 c0 -55 -9 -61 -48 -34 -22 15 -25 14 -58 -20 -40 -42 -43
-55 -9 -48 23 4 25 2 17 -19 -5 -13 -6 -32 -3 -43 6 -16 12 -13 39 25 35 46
39 59 20 59 -9 0 -9 3 -1 11 12 12 48 4 40 -8 -3 -5 20 -9 52 -10 31 0 47 1
36 4 -34 9 -45 24 -45 60 0 37 -15 73 -30 73 -6 0 -10 -22 -10 -50z"/>
<path d="M627 1612 c-15 -10 -24 -22 -20 -25 12 -13 68 -6 102 12 33 18 33 18
10 24 -39 11 -62 8 -92 -11z"/>
<path d="M2037 1584 c-21 -28 -19 -59 3 -59 19 0 42 48 34 69 -8 22 -16 20
-37 -10z"/>
<path d="M2140 1585 c-18 -22 -2 -38 33 -31 32 6 57 23 57 37 0 15 -77 10 -90
-6z"/>
<path d="M286 1559 c-40 -32 -35 -50 12 -37 41 11 74 36 66 49 -9 16 -51 9
-78 -12z"/>
<path d="M755 1540 c-45 -10 -67 -19 -51 -19 23 -1 27 -4 18 -13 -18 -18 -15
-28 8 -28 28 0 76 26 83 45 4 10 20 15 44 15 21 0 45 5 53 10 25 16 -65 10
-155 -10z"/>
<path d="M1811 1521 c-11 -7 -10 -11 7 -20 26 -14 122 -15 122 -1 0 24 -99 40
-129 21z"/>
<path d="M2217 1494 c-10 -10 15 -53 40 -69 22 -15 23 -14 23 10 0 36 -44 78
-63 59z"/>
<path d="M526 1468 c-17 -23 -22 -88 -8 -88 11 0 52 74 52 94 0 23 -26 20 -44
-6z"/>
<path d="M740 1470 c-24 -8 -24 -8 5 -9 17 0 37 4 45 9 12 8 11 10 -5 9 -11
-1 -31 -5 -45 -9z"/>
<path d="M2127 1449 c-32 -36 -35 -59 -8 -59 24 0 51 36 51 67 0 31 -10 29
-43 -8z"/>
<path d="M1808 1459 c-25 -14 -22 -26 7 -33 28 -7 76 11 83 32 5 15 -65 16
-90 1z"/>
<path d="M2050 1460 c-8 -5 -24 -10 -36 -10 -26 0 -60 -35 -44 -45 20 -12 79
5 91 26 14 26 8 41 -11 29z"/>
<path d="M264 1446 c-21 -16 -23 -14 32 -31 18 -6 64 20 64 35 0 15 -74 12
-96 -4z"/>
<path d="M665 1446 c-41 -15 -64 -45 -65 -83 0 -37 16 -52 25 -23 3 11 11 20
16 20 5 0 9 10 9 23 0 27 8 38 40 60 28 19 19 20 -25 3z"/>
<path d="M715 1410 c-17 -32 -20 -80 -6 -80 17 0 53 69 46 90 -9 28 -22 25
-40 -10z"/>
<path d="M1888 1393 c6 -2 18 -2 25 0 6 3 1 5 -13 5 -14 0 -19 -2 -12 -5z"/>
<path d="M1964 1378 c-11 -18 28 -39 65 -36 48 4 49 22 3 36 -49 15 -59 15
-68 0z"/>
<path d="M383 1363 c-13 -8 -23 -19 -23 -24 0 -13 64 -11 78 3 34 34 -12 52
-55 21z"/>
<path d="M1671 819 c17 -17 35 -24 66 -24 27 -1 50 -8 65 -20 l22 -20 -18 28
c-25 40 -13 45 29 11 80 -64 98 -74 138 -74 49 0 43 8 -15 21 -24 6 -54 18
-68 27 l-25 16 30 7 c30 7 30 7 6 15 -23 7 -24 8 -5 16 11 4 -29 7 -96 6 -63
-1 -124 2 -134 7 -16 7 -15 4 5 -16z"/>
<path d="M575 821 c-46 -6 -48 -7 -21 -14 32 -9 86 0 86 14 0 5 -3 8 -7 7 -5
0 -30 -4 -58 -7z"/>
<path d="M1958 793 c7 -3 16 -2 19 1 4 3 -2 6 -13 5 -11 0 -14 -3 -6 -6z"/>
<path d="M1540 760 c6 -11 13 -20 16 -20 2 0 0 9 -6 20 -6 11 -13 20 -16 20
-2 0 0 -9 6 -20z"/>
<path d="M817 750 c-14 -11 -33 -20 -44 -21 -10 0 -27 -5 -38 -10 -18 -8 -18
-9 5 -8 42 2 43 0 21 -37 l-21 -36 29 24 c16 12 35 35 41 50 7 15 15 26 19 24
4 -3 12 4 19 15 16 25 2 24 -31 -1z"/>
<path d="M1561 697 c0 -18 3 -26 6 -19 7 19 21 15 50 -15 l27 -28 -17 28 c-10
15 -15 31 -12 36 3 5 -9 14 -25 20 -29 10 -30 9 -29 -22z"/>
<path d="M836 685 c-11 -8 -17 -17 -14 -20 2 -3 13 4 23 15 21 23 18 25 -9 5z"/>
<path d="M1518 663 c-4 -8 -2 -148 2 -173 1 -8 8 21 14 65 l11 80 23 -22 c25
-26 29 -18 6 15 -17 25 -51 46 -56 35z"/>
<path d="M1695 630 c31 -61 52 -84 95 -109 24 -13 40 -19 36 -12 -4 6 -20 18
-36 26 -16 8 -34 24 -40 35 -10 19 -9 20 14 15 81 -17 83 -17 62 0 -11 8 -35
15 -54 15 -25 0 -42 8 -64 33 l-31 32 18 -35z"/>
<path d="M620 580 c-35 -20 -35 -20 -5 -14 17 4 41 13 55 20 22 12 22 13 5 13
-11 0 -36 -9 -55 -19z"/>
<path d="M1600 547 c0 -25 24 -80 42 -94 12 -11 12 -5 -2 38 -19 56 -40 85
-40 56z"/>
<path d="M780 534 c-17 -9 -20 -14 -9 -14 9 0 22 7 29 15 15 18 13 18 -20 -1z"/>
<path d="M980 523 c-29 -38 -50 -90 -49 -122 l1 -26 7 25 c4 14 11 40 16 58 4
18 18 40 31 48 24 16 40 44 24 44 -5 0 -18 -12 -30 -27z"/>
<path d="M1680 521 c20 -4 42 -11 50 -15 8 -4 6 0 -4 8 -11 9 -34 15 -50 15
-31 -1 -31 -1 4 -8z"/>
<path d="M1562 419 c7 -12 19 -31 25 -43 12 -21 13 -20 13 5 0 14 -8 33 -18
42 -26 23 -35 21 -20 -4z"/>
<path d="M1006 414 c-9 -8 -16 -25 -16 -36 0 -25 2 -23 24 20 18 35 16 40 -8
16z"/>
<path d="M1170 347 c0 -21 8 -41 20 -52 24 -22 26 -13 4 20 -9 14 -14 34 -11
45 3 11 1 20 -4 20 -5 0 -9 -15 -9 -33z"/>
<path d="M150 130 c0 -63 16 -83 23 -27 l4 32 13 -32 c8 -18 19 -33 25 -33 6
0 17 15 25 33 l13 32 4 -32 c7 -56 23 -36 23 27 0 73 -22 83 -41 20 -7 -22
-16 -40 -21 -40 -5 0 -17 18 -25 40 -24 61 -43 52 -43 -20z"/>
<path d="M310 130 c0 -33 4 -60 10 -60 6 0 10 27 10 60 0 33 -4 60 -10 60 -6
0 -10 -27 -10 -60z"/>
<path d="M361 128 c1 -49 3 -55 8 -29 8 48 22 48 49 1 13 -23 27 -38 32 -35
13 8 13 125 1 125 -6 0 -11 -19 -13 -42 l-3 -43 -28 43 c-15 23 -32 42 -37 42
-6 0 -9 -27 -9 -62z"/>
<path d="M492 128 c3 -60 4 -63 30 -66 32 -4 78 35 78 65 0 38 -29 63 -71 63
l-40 0 3 -62z m82 19 c13 -36 -2 -61 -38 -65 -25 -3 -26 -2 -26 48 0 50 1 51
27 48 20 -2 30 -11 37 -31z"/>
<path d="M620 130 c0 -33 4 -60 10 -60 6 0 10 11 10 25 0 21 5 25 30 25 25 0
30 -4 30 -25 0 -14 5 -25 10 -25 6 0 10 27 10 60 0 33 -4 60 -10 60 -5 0 -10
-11 -10 -25 0 -21 -5 -25 -30 -25 -25 0 -30 4 -30 25 0 14 -4 25 -10 25 -6 0
-10 -27 -10 -60z"/>
<path d="M750 141 c0 -53 17 -81 49 -81 31 0 51 33 51 83 0 64 -18 60 -22 -5
-3 -49 -5 -53 -28 -53 -23 0 -25 4 -28 53 -4 66 -22 69 -22 3z"/>
<path d="M880 130 c0 -67 12 -80 59 -64 23 8 26 15 26 54 1 57 -9 70 -51 70
l-34 0 0 -60z m65 30 c0 -8 -10 -16 -22 -18 -18 -3 -23 2 -23 18 0 16 5 21 23
18 12 -2 22 -10 22 -18z m5 -60 c0 -15 -7 -20 -25 -20 -18 0 -25 5 -25 20 0
15 7 20 25 20 18 0 25 -5 25 -20z"/>
<path d="M1040 130 c0 -67 12 -80 59 -64 23 8 26 15 26 54 1 57 -9 70 -51 70
l-34 0 0 -60z m65 30 c0 -8 -10 -16 -22 -18 -18 -3 -23 2 -23 18 0 16 5 21 23
18 12 -2 22 -10 22 -18z m5 -60 c0 -15 -7 -20 -25 -20 -18 0 -25 5 -25 20 0
15 7 20 25 20 18 0 25 -5 25 -20z"/>
<path d="M1161 128 c1 -41 3 -54 8 -39 10 37 28 36 47 -1 10 -19 19 -27 22
-20 2 7 -2 19 -9 28 -10 12 -9 20 1 39 17 32 -1 55 -41 55 -29 0 -29 0 -28
-62z m57 29 c4 -20 -25 -34 -40 -19 -15 15 -1 44 19 40 10 -2 19 -11 21 -21z"/>
<path d="M1271 176 c-7 -8 -11 -32 -9 -52 4 -46 45 -77 75 -58 59 36 46 117
-18 122 -22 2 -40 -2 -48 -12z m77 -8 c17 -17 15 -63 -2 -78 -8 -6 -25 -10
-38 -8 -19 2 -24 10 -26 42 -3 40 8 56 39 56 8 0 20 -5 27 -12z"/>
<path d="M1398 180 c19 -8 22 -17 22 -60 0 -27 5 -50 10 -50 6 0 10 24 10 54
0 49 2 55 23 59 12 2 -3 5 -33 5 -42 1 -50 -1 -32 -8z"/>
<path d="M1490 130 c0 -33 4 -60 10 -60 6 0 10 12 10 26 0 22 3 25 32 22 25
-2 34 -9 39 -28 5 -17 7 -4 8 38 1 34 -3 62 -7 62 -5 0 -8 -10 -8 -22 1 -19
-5 -24 -31 -26 -30 -3 -33 -1 -33 22 0 14 -4 26 -10 26 -6 0 -10 -27 -10 -60z"/>
<path d="M1622 128 c3 -63 3 -63 36 -66 18 -2 32 1 32 7 0 6 -11 11 -25 11
-18 0 -25 5 -25 20 0 15 7 20 25 20 14 0 25 5 25 10 0 6 -12 10 -26 10 -34 0
-29 31 6 41 21 6 19 7 -13 8 l-38 1 3 -62z"/>
<path d="M1720 130 c0 -57 15 -84 22 -38 4 31 21 32 39 0 12 -21 24 -28 53
-30 68 -4 91 44 35 73 -36 19 -33 37 7 47 27 6 27 6 -6 5 -28 -2 -36 -6 -38
-25 -3 -16 5 -27 27 -40 40 -22 34 -36 -16 -40 -34 -3 -42 0 -48 17 -3 11 -1
30 5 41 16 29 -3 50 -46 50 l-34 0 0 -60z m66 39 c8 -14 -21 -43 -35 -35 -6 4
-11 16 -11 27 0 21 34 27 46 8z"/>
<path d="M1970 130 c0 -67 12 -80 59 -64 24 9 26 14 26 64 l0 55 -42 3 -43 3
0 -61z m65 30 c0 -8 -10 -16 -22 -18 -18 -3 -23 2 -23 18 0 16 5 21 23 18 12
-2 22 -10 22 -18z m8 -46 c12 -12 -6 -34 -29 -34 -17 0 -24 6 -24 20 0 14 7
20 23 20 13 0 26 -3 30 -6z"/>
<path d="M2116 182 c-16 -26 -44 -112 -37 -112 5 0 11 7 15 15 8 21 53 19 65
-2 20 -37 20 -4 -2 50 -21 55 -30 66 -41 49z m21 -58 c-9 -9 -28 6 -21 18 4 6
10 6 17 -1 6 -6 8 -13 4 -17z"/>
<path d="M2201 128 c1 -49 3 -55 8 -29 8 48 22 48 49 1 13 -23 27 -38 32 -35
13 8 13 125 1 125 -6 0 -11 -19 -13 -42 l-3 -43 -28 43 c-15 23 -32 42 -37 42
-6 0 -9 -27 -9 -62z"/>
<path d="M2330 130 c0 -33 4 -60 10 -60 6 0 10 9 10 20 0 27 18 25 42 -6 28
-34 35 -22 9 14 -26 37 -26 40 1 69 12 13 17 23 11 23 -5 0 -18 -9 -28 -20
-10 -11 -22 -20 -27 -20 -4 0 -8 9 -8 20 0 11 -4 20 -10 20 -6 0 -10 -27 -10
-60z"/>
</g>
</svg>
